<svg xmlns="http://www.w3.org/2000/svg" color="#8d96a6" width="64" height="64" viewBox="0 0 32 32" fill="none" stroke-linecap="round" stroke-linejoin="round" aria-hidden="true"><path d="M4 28V3" stroke="#5b9bff" stroke-width="1.7"/><path d="M4 28H29" stroke="#ff6b70" stroke-width="1.7"/><path d="M4 28L15 17" stroke="#4bd17f" stroke-width="1.7"/><path d="M5 18.5H28" stroke="currentColor" stroke-opacity=".7" stroke-width="1.3" stroke-dasharray="2 2"/><g stroke="currentColor" stroke-opacity=".6" stroke-width="1.1" stroke-dasharray="2 2"><path d="M8 9h7v7h-7z"/><path d="M8 9l3 -3h7l-3 3z"/><path d="M15 9l3 -3v7l-3 3z"/></g><path d="M8 21h7v7h-7z" fill="#1aa7d6"/><path d="M8 21l3 -3h7l-3 3z" fill="#1aa7d6"/><path d="M8 21l3 -3h7l-3 3z" fill="#fff" fill-opacity=".38"/><path d="M15 21l3 -3v7l-3 3z" fill="#1aa7d6"/><path d="M15 21l3 -3v7l-3 3z" fill="#000" fill-opacity=".28"/><path d="M8 21h7v7h-7z" stroke="#000" stroke-opacity=".35" stroke-width=".8"/></svg>