<svg xmlns="http://www.w3.org/2000/svg" color="#667085" width="64" height="64" viewBox="0 0 32 32" fill="none" stroke-linecap="round" stroke-linejoin="round" aria-hidden="true"><path d="M4 28V3" stroke="#2f6df6" stroke-width="1.7"/><path d="M4 28H29" stroke="#e5484d" stroke-width="1.7"/><path d="M4 28L15 17" stroke="#2fa85a" stroke-width="1.7"/><path d="M12 9h6v17h-6z" fill="#1aa7d6"/><path d="M12 9l3 -3h6l-3 3z" fill="#1aa7d6"/><path d="M12 9l3 -3h6l-3 3z" fill="#fff" fill-opacity=".38"/><path d="M18 9l3 -3v17l-3 3z" fill="#1aa7d6"/><path d="M18 9l3 -3v17l-3 3z" fill="#000" fill-opacity=".28"/><path d="M12 9h6v17h-6z" stroke="#000" stroke-opacity=".35" stroke-width=".8"/><path d="M7.6 20.4A10 10 0 1 1 26.4 20.4" stroke="currentColor" stroke-width="1.9"/><path d="M25.4 23.2L24.3 17.5L29.9 19.6z" fill="currentColor" stroke="none"/></svg>