<svg xmlns="http://www.w3.org/2000/svg" color="#667085" width="64" height="64" viewBox="0 0 32 32" fill="none" stroke-linecap="round" stroke-linejoin="round" aria-hidden="true"><rect x="2" y="2" width="6" height="6" fill="#ff3b3b"/><rect x="9" y="2" width="6" height="6" fill="#ff3b3b"/><rect x="16" y="2" width="6" height="6" fill="#ff3b3b"/><rect x="23" y="2" width="6" height="6" fill="#ff3b3b"/><rect x="2" y="9" width="6" height="6" fill="#ff3b3b"/><rect x="9" y="9" width="6" height="6" stroke="currentColor" stroke-opacity=".3" stroke-dasharray="1.5 1.5" stroke-width=".8"/><rect x="16" y="9" width="6" height="6" stroke="currentColor" stroke-opacity=".3" stroke-dasharray="1.5 1.5" stroke-width=".8"/><rect x="23" y="9" width="6" height="6" fill="#ff3b3b"/><rect x="2" y="16" width="6" height="6" fill="#ff3b3b"/><rect x="9" y="16" width="6" height="6" stroke="currentColor" stroke-opacity=".3" stroke-dasharray="1.5 1.5" stroke-width=".8"/><rect x="16" y="16" width="6" height="6" stroke="currentColor" stroke-opacity=".3" stroke-dasharray="1.5 1.5" stroke-width=".8"/><rect x="23" y="16" width="6" height="6" fill="#ff3b3b"/><rect x="2" y="23" width="6" height="6" fill="#ff3b3b"/><rect x="9" y="23" width="6" height="6" fill="#ff3b3b"/><rect x="16" y="23" width="6" height="6" fill="#ff3b3b"/><rect x="23" y="23" width="6" height="6" fill="#ff3b3b"/><g transform="translate(14 14) scale(.56)"><path d="M3 29l2-8L23 3l6 6L11 27z" fill="#f5b942" stroke="#7a4a00" stroke-width="1.6"/><path d="M3 29l2-8 6 6z" fill="#f6dfb2" stroke="#7a4a00" stroke-width="1.2"/></g></svg>