<svg xmlns="http://www.w3.org/2000/svg" color="#667085" width="64" height="64" viewBox="0 0 32 32" fill="none" stroke-linecap="round" stroke-linejoin="round" aria-hidden="true"><rect x="2" y="2" width="6" height="6" stroke="currentColor" stroke-opacity=".3" stroke-dasharray="1.5 1.5" stroke-width=".8"/><rect x="9" y="2" width="6" height="6" stroke="currentColor" stroke-opacity=".3" stroke-dasharray="1.5 1.5" stroke-width=".8"/><rect x="16" y="2" width="6" height="6" stroke="currentColor" stroke-opacity=".3" stroke-dasharray="1.5 1.5" stroke-width=".8"/><rect x="23" y="2" width="6" height="6" stroke="currentColor" stroke-opacity=".3" stroke-dasharray="1.5 1.5" stroke-width=".8"/><rect x="2" y="9" width="6" height="6" stroke="currentColor" stroke-opacity=".3" stroke-dasharray="1.5 1.5" stroke-width=".8"/><rect x="9" y="9" width="6" height="6" fill="#ffc400"/><rect x="16" y="9" width="6" height="6" fill="#ffc400"/><rect x="23" y="9" width="6" height="6" stroke="currentColor" stroke-opacity=".3" stroke-dasharray="1.5 1.5" stroke-width=".8"/><rect x="2" y="16" width="6" height="6" stroke="currentColor" stroke-opacity=".3" stroke-dasharray="1.5 1.5" stroke-width=".8"/><rect x="9" y="16" width="6" height="6" fill="#ffc400"/><rect x="16" y="16" width="6" height="6" fill="#ffc400"/><rect x="23" y="16" width="6" height="6" stroke="currentColor" stroke-opacity=".3" stroke-dasharray="1.5 1.5" stroke-width=".8"/><rect x="2" y="23" width="6" height="6" stroke="currentColor" stroke-opacity=".3" stroke-dasharray="1.5 1.5" stroke-width=".8"/><rect x="9" y="23" width="6" height="6" stroke="currentColor" stroke-opacity=".3" stroke-dasharray="1.5 1.5" stroke-width=".8"/><rect x="16" y="23" width="6" height="6" stroke="currentColor" stroke-opacity=".3" stroke-dasharray="1.5 1.5" stroke-width=".8"/><rect x="23" y="23" width="6" height="6" stroke="currentColor" stroke-opacity=".3" stroke-dasharray="1.5 1.5" stroke-width=".8"/><g transform="translate(14 14) scale(.56)"><path d="M27 3l2 2-11 11-2-2z" fill="#8791a1" stroke="#404a5c" stroke-width="1.2"/><path d="M16 14l2 2c-1 5-5 9-13 9 3-2 3-5 4-8z" fill="#3b6cff" stroke="#1b3fa6" stroke-width="1.2"/></g></svg>