/* XPM */
static char *Grid_Color_Origin_xpm[] = {
/* columns rows colors chars-per-pixel */
"33 23 7 1",
"  c black",
". c #009900",
"X c #FF0000",
"o c #FFCC00",
"O c #BBBBBB",
"+ c #CCCCFF",
"@ c None",
/* pixels */
"@@@@@@@@@@@@@@@@@@@@@@@@@@@@@@@@@",
"@.@@@   @@@@@@@@@@@@@@@@@@@@@@@@@",
"@.++++ ++++@++++@++++@++++@++++@@",
"@.++++ ++++@++++@++++@++++@++++@@",
"@.++++ ++++@++++@++++@++++@++++@@",
"@.++++ ++++@++++@++++@++++@++++@@",
"@.@@@@ @@@@@@@@@@@@@@@@@@@@@@@@@@",
"@.++++ ++++@++++@++++@++++@++++@@",
"@.++++ ++++@++++@++++@++++@++++@@",
"@.+++   +++@++++@++++@++++@++++@@",
"@@++++@++++@++++@++++@++++@++++@@",
"@           @@@@@@@@@@@@@@@@@@@@@",
"@ oooo oooo ++++@++++@++++@++++@@",
"@ oooo oooo ++++@++++@++++@++++@@",
"@ oooo oooo ++++@++++@++++@++++@@",
"@ oooo oooo + ++@++++@++++@++++ @",
"@           @                   @",
"@ oooo oooo + ++@++++@++++@++++ @",
"@ oooo oooo ++++@++++@++++@++++@@",
"@ oooo oooo ++++@++++@++++@++++@@",
"@ oooo oooo ++++@++++@++++@++++@@",
"@           @XXXXXXXXXXXXXXXXXXX@",
"@@@@@@@@@@@@@@@@@@@@@@@@@@@@@@@@@"
};
