/* XPM */
static char *Grid_Color_Center_xpm[] = {
/* columns rows colors chars-per-pixel */
"33 23 8 1",
"  c black",
". c #0000FF",
"X c #009900",
"o c #FF0000",
"O c #FFCC00",
"+ c #BBBBBB",
"@ c #CCCCFF",
"# c None",
/* pixels */
"#################################",
"#X#############   ###############",
"#X@@@@#@@@@#@@@@ @@@@#@@@@#@@@@##",
"#X@@@@#@@@@#@@@@ @@@@#@@@@#@@@@##",
"#X@@@@#@@@@#@@@   @@@#@@@@#@@@@##",
"#X@@@@#@@@@#@@@@#@@@@#@@@@#@@@@##",
"#X#########           ###########",
"#X@@@@#@@@@ OOOO OOOO @@@@#@@@@##",
"#X@@@@#@@@@ OOOO OOOO @@@@#@@@@##",
"##@@@@#@@@@ OOOO OOOO @@@@#@@@@##",
"# @@@@#@@ @ OOOO OOOO @ @@#@@@@ #",
"#         #           #         #",
"# @@@@#@@ @ OOOO OOOO @ @@#@@@@ #",
"##@@@@#@@@@ OOOO OOOO @@@@#@@@@##",
"#X@@@@#@@@@ OOOO OOOO @@@@#@@@@##",
"#X@@@@#@@@@ OOOO OOOO @@@@#@@@@##",
"#X#########           ###########",
"#X@@@@#@@@@#@@@@#@@@@#@@@@#@@@@##",
"#X@@@@#@@@@#@@@   @@@#@@@@#@@@@##",
"#X@@@@#@@@@#@@@@ @@@@#@@@@#@@@@##",
"#X@@@@#@@@@#@@@@ @@@@#@@@@#@@@@##",
"#.oooooooooooo#   #ooooooooooooo#",
"#################################"
};
