/* XPM */
static const char *Grid_Disabled_Origin_xpm[] = {
/* columns rows colors chars-per-pixel */
"33 23 3 1",
"  c #00FFFF",
". c #868686",
"X c None",
/* pixels */
"XXXXXXXXXXXXXXXXXXXXXXXXXXXXXXXXX",
"X.XXX...XXXXXXXXXXXXXXXXXXXXXXXXX",
"X.XXXX.XXXXXXXXXXXXXXXXXXXXXXXXXX",
"X.XXXX.XXXXXXXXXXXXXXXXXXXXXXXXXX",
"X.XXXX.XXXXXXXXXXXXXXXXXXXXXXXXXX",
"X.XXXX.XXXXXXXXXXXXXXXXXXXXXXXXXX",
"X.XXXX.XXXXXXXXXXXXXXXXXXXXXXXXXX",
"X.XXXX.XXXXXXXXXXXXXXXXXXXXXXXXXX",
"X.XXXX.XXXXXXXXXXXXXXXXXXXXXXXXXX",
"X.XXX...XXXXXXXXXXXXXXXXXXXXXXXXX",
"XXXXXXXXXXXXXXXXXXXXXXXXXXXXXXXXX",
"X...........XXXXXXXXXXXXXXXXXXXXX",
"X.XXXX.XXXX.XXXXXXXXXXXXXXXXXXXXX",
"X.XXXX.XXXX.XXXXXXXXXXXXXXXXXXXXX",
"X.XXXX.XXXX.XXXXXXXXXXXXXXXXXXXXX",
"X.XXXX.XXXX.X.XXXXXXXXXXXXXXXXX.X",
"X...........X...................X",
"X.XXXX.XXXX.X.XXXXXXXXXXXXXXXXX.X",
"X.XXXX.XXXX.XXXXXXXXXXXXXXXXXXXXX",
"X.XXXX.XXXX.XXXXXXXXXXXXXXXXXXXXX",
"X.XXXX.XXXX.XXXXXXXXXXXXXXXXXXXXX",
"X...........X...................X",
"XXXXXXXXXXXXXXXXXXXXXXXXXXXXXXXXX"
};
