/* XPM */
static const char *Grid_Disabled_Center_xpm[] = {
/* columns rows colors chars-per-pixel */
"33 23 3 1",
"  c #00FFFF",
". c #868686",
"X c None",
/* pixels */
"XXXXXXXXXXXXXXXXXXXXXXXXXXXXXXXXX",
"X.XXXXXXXXXXXXX...XXXXXXXXXXXXXXX",
"X.XXXXXXXXXXXXXX.XXXXXXXXXXXXXXXX",
"X.XXXXXXXXXXXXXX.XXXXXXXXXXXXXXXX",
"X.XXXXXXXXXXXXX...XXXXXXXXXXXXXXX",
"X.XXXXXXXXXXXXXXXXXXXXXXXXXXXXXXX",
"X.XXXXXXXXX...........XXXXXXXXXXX",
"X.XXXXXXXXX.XXXX.XXXX.XXXXXXXXXXX",
"X.XXXXXXXXX.XXXX.XXXX.XXXXXXXXXXX",
"XXXXXXXXXXX.XXXX.XXXX.XXXXXXXXXXX",
"X.XXXXXXX.X.XXXX.XXXX.X.XXXXXXX.X",
"X.........X...........X.........X",
"X.XXXXXXX.X.XXXX.XXXX.X.XXXXXXX.X",
"XXXXXXXXXXX.XXXX.XXXX.XXXXXXXXXXX",
"X.XXXXXXXXX.XXXX.XXXX.XXXXXXXXXXX",
"X.XXXXXXXXX.XXXX.XXXX.XXXXXXXXXXX",
"X.XXXXXXXXX...........XXXXXXXXXXX",
"X.XXXXXXXXXXXXXXXXXXXXXXXXXXXXXXX",
"X.XXXXXXXXXXXXX...XXXXXXXXXXXXXXX",
"X.XXXXXXXXXXXXXX.XXXXXXXXXXXXXXXX",
"X.XXXXXXXXXXXXXX.XXXXXXXXXXXXXXXX",
"X.............X...X.............X",
"XXXXXXXXXXXXXXXXXXXXXXXXXXXXXXXXX"
};
