/* XPM */
static const char *Grid_Monochrome_Origin_xpm[] = {
/* columns rows colors chars-per-pixel */
"33 23 5 1",
"  c #010101",
". c #A0A0A0",
"X c #BBBBBB",
"o c #FFFFFF",
"O c None",
/* pixels */
"OOOOOOOOOOOOOOOOOOOOOOOOOOOOOOOOO",
"O OOO   OOOOOOOOOOOOOOOOOOOOOOOOO",
"O .... ....O....O....O....O....OO",
"O .... ....O....O....O....O....OO",
"O .... ....O....O....O....O....OO",
"O .... ....O....O....O....O....OO",
"O OOOO OOOOOOOOOOOOOOOOOOOOOOOOOO",
"O .... ....O....O....O....O....OO",
"O .... ....O....O....O....O....OO",
"O ...   ...O....O....O....O....OO",
"OO....O....O....O....O....O....OO",
"O           OOOOOOOOOOOOOOOOOOOOO",
"O oooo oooo ....O....O....O....OO",
"O oooo oooo ....O....O....O....OO",
"O oooo oooo ....O....O....O....OO",
"O oooo oooo . ..O....O....O.... O",
"O           O                   O",
"O oooo oooo . ..O....O....O.... O",
"O oooo oooo ....O....O....O....OO",
"O oooo oooo ....O....O....O....OO",
"O oooo oooo ....O....O....O....OO",
"O           O                   O",
"OOOOOOOOOOOOOOOOOOOOOOOOOOOOOOOOO"
};
