/* XPM */
static const char *Grid_Monochrome_Minimize_xpm[] = {
/* columns rows colors chars-per-pixel */
"33 23 5 1",
"  c #010101",
". c #A1A1A1",
"X c #BBBBBB",
"o c #FFFFFF",
"O c None",
/* pixels */
"OOOOOOOOOOOOOOOOOOOOOOOOOOOOOOOOO",
"O                               O",
"O . ..O....O....O....O....O.. . O",
"O    .O. ..O....O....O.. .O.    O",
"O .   O  ..O....O....O..  O   . O",
"O ..     ..O....O....O..     .. O",
"O OOO    OO           OO    OOO O",
"O ..     .. oooo oooo ..     .. O",
"O .      .. oooo oooo ..      . O",
"O ....O.... oooo oooo ....O.... O",
"O ....O.... oooo oooo ....O.... O",
"O OOOOOOOOO           OOOOOOOOO O",
"O ....O.... oooo oooo ....O.... O",
"O ....O.... oooo oooo ....O.... O",
"O .      .. oooo oooo ..      . O",
"O ..     .. oooo oooo ..     .. O",
"O OOO    OO           OO    OOO O",
"O ..     ..O....O....O..     .. O",
"O .   O  ..O....O....O..  O   . O",
"O    .O. ..O....O....O.. .O.    O",
"O . ..O....O....O....O....O.. . O",
"O                               O",
"OOOOOOOOOOOOOOOOOOOOOOOOOOOOOOOOO"
};
