/* XPM */
static char *InOut_Disabled_Fixed_Out_xpm[] = {
/* columns rows colors chars-per-pixel */
"33 23 3 1",
"  c #868686",
". c #BBBBBB",
"X c None",
/* pixels */
"XXXXXXXXXXXXXXXXXXXXXXXXXXXXXXXXX",
"X                     XXXXXXXXXXX",
"X XXXX XXXX XXXX XXXX XXXXXXXXXXX",
"X XXXX XXXX XXXX XXXX XXXXXXXXXXX",
"X XXXX XXXX XXXX XXXX XXXXXXXXXXX",
"X XXXX XXXX XXXX XXXX XXXXXXXXXXX",
"X                     XXXXXX  XXX",
"X XXXX XXXXXXXXX XXXX XXXXX XX XX",
"X XXXX XXXXXXXXX XXXX XXXX  XXX X",
"X XXXX XXXXXXXXX XXXX XXX  X XX X",
"X XXXX XXXXXXXXX XXXX XX XX X  XX",
"X      XXXXXXXXX      X XXXX  XXX",
"X XXXX XXXXXXXXX XXXX  XXXXX XXXX",
"X XXXX XXXXXXXXX XXXX XXXXX XXXXX",
"X XXXX XXXXXXXXX XXX XXXXX XXXXXX",
"X XXXX XXXXXXXXX XX XXXXX XXXXXXX",
"X                  X XXX XXXXXXXX",
"X XXXX XXXX XXXX X XX X XXXXXXXXX",
"X XXXX XXXX XXXX  X XX XXXXXXXXXX",
"X XXXX XXXX XXXX XXX  XXXXXXXXXXX",
"X XXXX XXXX XXXX XX X XXXXXXXXXXX",
"X                     X         X",
"XXXXXXXXXXXXXXXXXXXXXXXXXXXXXXXXX"
};
