/* XPM */
static char *InOut_Monochrome_Fixed_In_xpm[] = {
/* columns rows colors chars-per-pixel */
"33 23 14 1",
"  c black",
". c #505050",
"X c gray42",
"o c gray47",
"O c #FF6600",
"+ c #868686",
"@ c gray63",
"# c #AEAEAE",
"$ c #BBBBBB",
"% c gray79",
"& c gray80",
"* c gray84",
"= c gray100",
"- c None",
/* pixels */
"---------------------------------",
"-                     -----------",
"- &&&&@&&&&@&&&&@&&&& -----------",
"- &&&&@&&&&@&&&&@&&&& -----------",
"- &&&&@&&&&@&&&&@&&&& -----------",
"- &&&&@&&&&@&&&&@&&&& -----------",
"- @@@@           @@@@ ------  ---",
"- &&&& ==== ==== &&&& ----- =% --",
"- &&&& ==== ==== &&&& ----  %%o -",
"- &&&& ==== ==== &&&& ---  $ oo -",
"- &&&& ==== ==== &&&& -- =% .  --",
"- @@@@           @@@@ - =%%o  ---",
"- &&&& ==== ==== &&&&  =%%oo ----",
"- &&&& ==== ==== &&&& =%%oo -----",
"- &&&& ==== ==== &&& =%%oo ------",
"- &&&& ==== ==== && =%%oo -------",
"- @@@@           @ = %oo --------",
"- &&&&@&&&&@&&&&@& %% o ---------",
"- &&&&@&&&&@&&&&@ * oo ----------",
"- &&&&@&&&&@&&&& *##  -----------",
"- &&&&@&&&&@&&&& X# & -----------",
"-                  +  -         -",
"---------------------------------"
};
