/* XPM */
static char *InOut_Monochrome_RemoveColor_In_xpm[] = {
/* columns rows colors chars-per-pixel */
"33 23 16 1",
"  c black",
". c #434343",
"X c #505050",
"o c gray40",
"O c gray42",
"+ c #FF6600",
"@ c #868686",
"# c #939393",
"$ c gray63",
"% c #AEAEAE",
"& c #BBBBBB",
"* c gray80",
"= c gray84",
"- c #F1F1F1",
"; c gray100",
": c None",
/* pixels */
":::::::::::::::::::::::::::::::::",
":                     ::     ::::",
": ****$****$****$**** :: .XX ::::",
": ****$****$****$**** ::     ::::",
": ****$****$****$**** : &--;; :::",
": ****$****$****$** *  &&---;; ::",
": $$$$           @ - @&&---;;;; :",
": **** oooo oooo@ --- @&-;;;;;  :",
": **** oooo oooo -%%-- @      ; :",
": **** oooo ooo O%%%%-- &---;;; :",
": **** oooo oooo OO%%%-- -----; :",
": $$$$          @ OO%%%%- ----; :",
": **** oooo oooo * OO%%O = ---; :",
": **** oooo oooo ** OOO *= ---; :",
": **** oooo oooo *** O **= ---; :",
": **** oooo oooo **** XX* # --; :",
": $$$$           $$$$@   . = -; :",
": ****$****$****$**** &-- X*= ; :",
": ****$****$****$**** &&-- X*= @:",
": ****$****$****$**** &&&-- X*= :",
": ****$****$****$****  &&&&- X* :",
":                     :     @  ::",
":::::::::::::::::::::::::::::::::"
};
