/* XPM */
static const char *InOut_Disabled_RemoveColor_In_xpm[] = {
/* columns rows colors chars-per-pixel */
"33 23 3 1",
"  c #868686",
". c #BBBBBB",
"X c None",
/* pixels */
"XXXXXXXXXXXXXXXXXXXXXXXXXXXXXXXXX",
"X                     XX     XXXX",
"X XXXXXXXXXXXXXXXXXXX XX XXX XXXX",
"X XXXXXXXXXXXXXXXXXXX XX     XXXX",
"X XXXXXXXXXXXXXXXXXXX X XXXXX XXX",
"X XXXXXXXXXXXXXXXXX X  XXXXXXX XX",
"X XXXX           X X  XXXXXXXXX X",
"X XXXX XXXX XXXX  XXX  XXXXXXX  X",
"X XXXX XXXX XXXX XXXXX        X X",
"X XXXX XXXX XXX XXXXXXX XXXXXXX X",
"X XXXX XXXX XXXX XXXXXXX XXXXXX X",
"X XXXX            XXXXXXX XXXXX X",
"X XXXX XXXX XXXX X XXXXX X XXXX X",
"X XXXX XXXX XXXX XX XXX XX XXXX X",
"X XXXX XXXX XXXX XXX X XXX XXXX X",
"X XXXX XXXX XXXX XXXX XXX X XXX X",
"X XXXX           XXXX    X X XX X",
"X XXXXXXXXXXXXXXXXXXX XXX XXX X X",
"X XXXXXXXXXXXXXXXXXXX XXXX XXX  X",
"X XXXXXXXXXXXXXXXXXXX XXXXX XXX X",
"X XXXXXXXXXXXXXXXXXXX  XXXXX XX X",
"X                     X        XX",
"XXXXXXXXXXXXXXXXXXXXXXXXXXXXXXXXX"
};
