/* XPM */
static char *InOut_Monochrome_Fixed_Out_xpm[] = {
/* columns rows colors chars-per-pixel */
"33 23 14 1",
"  c black",
". c #505050",
"X c #6B6B6B",
"o c #787878",
"O c #FF6600",
"+ c #868686",
"@ c #A1A1A1",
"# c #AEAEAE",
"$ c #BBBBBB",
"% c #C9C9C9",
"& c #CCCCCC",
"* c #D6D6D6",
"= c #FFFFFF",
"- c None",
/* pixels */
"---------------------------------",
"-                     -----------",
"- ==== ==== ==== ==== -----------",
"- ==== ==== ==== ==== -----------",
"- ==== ==== ==== ==== -----------",
"- ==== ==== ==== ==== -----------",
"-                     ------  ---",
"- ==== &&&&@&&&& ==== ----- =% --",
"- ==== &&&&@&&&& ==== ----  %%o -",
"- ==== &&&&@&&&& ==== ---  $ oo -",
"- ==== &&&&@&&&& ==== -- =% .  --",
"-      @@@@@@@@@      - =%%o  ---",
"- ==== &&&&@&&&& ====  =%%oo ----",
"- ==== &&&&@&&&& ==== =%%oo -----",
"- ==== &&&&@&&&& === =%%oo ------",
"- ==== &&&&@&&&& == =%%oo -------",
"-                  = %oo --------",
"- ==== ==== ==== = %% o ---------",
"- ==== ==== ====+ * oo ----------",
"- ==== ==== ==== *##  -----------",
"- ==== ==== ==== X# = -----------",
"-                  +  -         -",
"---------------------------------"
};
