/* XPM */
static const char *InOut_Color_Variable_Out_xpm[] = {
/* columns rows colors chars-per-pixel */
"33 23 15 1",
"  c #010101",
". c #6B6B6B",
"X c #0066CC",
"o c #CC6600",
"O c #99FF00",
"+ c #FF9933",
"@ c #FFCC00",
"# c #868686",
"$ c #A1A1A1",
"% c #BBBBBB",
"& c #99CCFF",
"* c #FFCC99",
"= c #FFFFCC",
"- c #E4E4E4",
"; c None",
/* pixels */
";;;;;;;;;;;;;;;;;;;;;;;;;;;;;;;;;",
";                     ;;;;;;;;;;;",
"; OOOO OOOO OOOO OOOO ;;;;;;;;;;;",
"; O  O O  O O  O O  O ;;;;;;;;;;;",
"; O  O O  O O  O O  O ;;;;;;;;;;;",
"; OOOO OOOO OOOO OOOO ;;;;;;;;;;;",
";                     ;;;;;;  ;;;",
"; OOOO ----$---- OOOO ;;;;; =@ ;;",
"; O  O ----$---- O  O ;;;;  @@o ;",
"; O  O ----$---- O  O ;;;  & oo ;",
"; OOOO ----$---- OOOO ;; =@ X  ;;",
";      $$$$$$$$$      ; =@@o  ;;;",
"; OOOO ----$---- OOOO  =@@oo ;;;;",
"; O  O ----$---- O  O =@@oo ;;;;;",
"; O  O ----$---- O   =@@oo ;;;;;;",
"; OOOO ----$---- OO =@@oo ;;;;;;;",
";                  = @oo ;;;;;;;;",
"; OOOO OOOO OOOO O @@ o ;;;;;;;;;",
"; O  O O  O O  O# * oo ;;;;;;;;;;",
"; O  O O  O O  O *++  ;;;;;;;;;;;",
"; OOOO OOOO OOOO .+ O ;;;;;;;;;;;",
";                  #  ;         ;",
";;;;;;;;;;;;;;;;;;;;;;;;;;;;;;;;;"
};
