/* XPM */
static const char *InOut_Disabled_Variable_Out_xpm[] = {
/* columns rows colors chars-per-pixel */
"33 23 3 1",
"  c #868686",
". c #BBBBBB",
"X c None",
/* pixels */
"XXXXXXXXXXXXXXXXXXXXXXXXXXXXXXXXX",
"X                     XXXXXXXXXXX",
"X XXXX XXXX XXXX XXXX XXXXXXXXXXX",
"X X  X X  X X  X X  X XXXXXXXXXXX",
"X X  X X  X X  X X  X XXXXXXXXXXX",
"X XXXX XXXX XXXX XXXX XXXXXXXXXXX",
"X                     XXXXXX  XXX",
"X XXXX XXXXXXXXX XXXX XXXXX XX XX",
"X X  X XXXXXXXXX X  X XXXX  XXX X",
"X X  X XXXXXXXXX X  X XXX  X XX X",
"X XXXX XXXXXXXXX XXXX XX XX X  XX",
"X      XXXXXXXXX      X XXXX  XXX",
"X XXXX XXXXXXXXX XXXX  XXXXX XXXX",
"X X  X XXXXXXXXX X  X XXXXX XXXXX",
"X X  X XXXXXXXXX X   XXXXX XXXXXX",
"X XXXX XXXXXXXXX XX XXXXX XXXXXXX",
"X                  X XXX XXXXXXXX",
"X XXXX XXXX XXXX X XX X XXXXXXXXX",
"X X  X X  X X  X  X XX XXXXXXXXXX",
"X X  X X  X X  X XXX  XXXXXXXXXXX",
"X XXXX XXXX XXXX XX X XXXXXXXXXXX",
"X                     X         X",
"XXXXXXXXXXXXXXXXXXXXXXXXXXXXXXXXX"
};
