/* XPM */
static const char *InOut_Monochrome_RemoveColor_Out_xpm[] = {
/* columns rows colors chars-per-pixel */
"33 23 16 1",
"  c black",
". c #434343",
"X c #505050",
"o c #666666",
"O c #6B6B6B",
"+ c #FF6600",
"@ c #868686",
"# c #939393",
"$ c #A1A1A1",
"% c #AEAEAE",
"& c #BBBBBB",
"* c #CCCCCC",
"= c #D6D6D6",
"- c #F1F1F1",
"; c #FFFFFF",
": c None",
/* pixels */
":::::::::::::::::::::::::::::::::",
":                     ::     ::::",
": oooo oooo oooo oooo :: .XX ::::",
": oooo oooo oooo oooo ::     ::::",
": oooo oooo oooo oooo : &--;; :::",
": oooo oooo oooo oo o  &&---;; ::",
":                @ - @&&---;;;; :",
": oooo ****$****@ --- @&-;;;;;  :",
": oooo ****$**** -%%-- @      ; :",
": oooo ****$*** O%%%%-- &---;;; :",
": oooo ****$**** OO%%%-- -----; :",
":      $$$$$$$$$@ OO%%%%- ----; :",
": oooo ****$**** o OO%%O = ---; :",
": oooo ****$**** oo OOO *= ---; :",
": oooo ****$**** ooo O **= ---; :",
": oooo ****$**** oooo XX* # --; :",
":                    @   . = -; :",
": oooo oooo oooo oooo &-- X*= ; :",
": oooo oooo oooo oooo &&-- X*= @:",
": oooo oooo oooo oooo &&&-- X*= :",
": oooo oooo oooo oooo  &&&&- X* :",
":                     :     @  ::",
":::::::::::::::::::::::::::::::::"
};
