/* XPM */
static char *InOut_Color_RemoveColor_In_xpm[] = {
/* columns rows colors chars-per-pixel */
"33 23 20 1",
"  c black",
". c gray42",
"X c #993333",
"o c #CC0000",
"O c red",
"+ c #9900FF",
"@ c #CC66FF",
"# c #FFCC00",
"$ c #FFCC33",
"% c #868686",
"& c gray63",
"* c #AEAEAE",
"= c #BBBBBB",
"- c #99CCFF",
"; c #CCFFFF",
": c #FFCCCC",
"> c #E4E4E4",
", c #F1F1F1",
"< c gray100",
"1 c None",
/* pixels */
"111111111111111111111111111111111",
"1                     11     1111",
"1 >>>>&>>>>&>>>>&>>>> 11 oOO 1111",
"1 >>>>&>>>>&>>>>&>>>> 11     1111",
"1 >>>>&>>>>&>>>>&>>>> 1 -;;<< 111",
"1 >>>>&>>>>&>>>>&>> >  --;;;<< 11",
"1 &&&&           % , %--;;;<<<< 1",
"1 >>>> #### ####% ,,, %-;<<<<<  1",
"1 >>>> #### #### ,**,, %      < 1",
"1 >>>> #### ### .****,, -;;;<<< 1",
"1 >>>> #### #### ..***,, ;;;;;< 1",
"1 &&&&          % ..****, ;;;;< 1",
"1 >>>> #### #### > ..**. : ;;;< 1",
"1 >>>> #### #### >> ... $: ;;;< 1",
"1 >>>> #### #### >>> . $$: ;;;< 1",
"1 >>>> #### #### >>>> XX$ @ ;;< 1",
"1 &&&&           &&&&%   + : ;< 1",
"1 >>>>&>>>>&>>>>&>>>> -;; X$: < 1",
"1 >>>>&>>>>&>>>>&>>>> --;; X$: %1",
"1 >>>>&>>>>&>>>>&>>>> ---;; X$: 1",
"1 >>>>&>>>>&>>>>&>>>>  ----; X$ 1",
"1                     1     %  11",
"111111111111111111111111111111111"
};
