/* XPM */
static const char *InOut_Disabled_Fixed_In_xpm[] = {
/* columns rows colors chars-per-pixel */
"33 23 3 1",
"  c #868686",
". c #BBBBBB",
"X c None",
/* pixels */
"XXXXXXXXXXXXXXXXXXXXXXXXXXXXXXXXX",
"X                     XXXXXXXXXXX",
"X XXXXXXXXXXXXXXXXXXX XXXXXXXXXXX",
"X XXXXXXXXXXXXXXXXXXX XXXXXXXXXXX",
"X XXXXXXXXXXXXXXXXXXX XXXXXXXXXXX",
"X XXXXXXXXXXXXXXXXXXX XXXXXXXXXXX",
"X XXXX           XXXX XXXXXX  XXX",
"X XXXX XXXX XXXX XXXX XXXXX XX XX",
"X XXXX XXXX XXXX XXXX XXXX  XXX X",
"X XXXX XXXX XXXX XXXX XXX  X XX X",
"X XXXX XXXX XXXX XXXX XX XX X  XX",
"X XXXX           XXXX X XXXX  XXX",
"X XXXX XXXX XXXX XXXX  XXXXX XXXX",
"X XXXX XXXX XXXX XXXX XXXXX XXXXX",
"X XXXX XXXX XXXX XXX XXXXX XXXXXX",
"X XXXX XXXX XXXX XX XXXXX XXXXXXX",
"X XXXX           X X XXX XXXXXXXX",
"X XXXXXXXXXXXXXXXX XX X XXXXXXXXX",
"X XXXXXXXXXXXXXXX X XX XXXXXXXXXX",
"X XXXXXXXXXXXXXX XXX  XXXXXXXXXXX",
"X XXXXXXXXXXXXXX XX X XXXXXXXXXXX",
"X                     X         X",
"XXXXXXXXXXXXXXXXXXXXXXXXXXXXXXXXX"
};
