/* XPM */
static char *InOut_Disabled_RemoveColor_Out_xpm[] = {
/* columns rows colors chars-per-pixel */
"33 23 3 1",
"  c #868686",
". c #BBBBBB",
"X c None",
/* pixels */
"XXXXXXXXXXXXXXXXXXXXXXXXXXXXXXXXX",
"X                     XX     XXXX",
"X XXXX XXXX XXXX XXXX XX XXX XXXX",
"X XXXX XXXX XXXX XXXX XX     XXXX",
"X XXXX XXXX XXXX XXXX X XXXXX XXX",
"X XXXX XXXX XXXX XX X  XXXXXXX XX",
"X                  X  XXXXXXXXX X",
"X XXXX XXXXXXXXX  XXX  XXXXXXX  X",
"X XXXX XXXXXXXXX XXXXX        X X",
"X XXXX XXXXXXXX XXXXXXX XXXXXXX X",
"X XXXX XXXXXXXXX XXXXXXX XXXXXX X",
"X      XXXXXXXXX  XXXXXXX XXXXX X",
"X XXXX XXXXXXXXX X XXXXX X XXXX X",
"X XXXX XXXXXXXXX XX XXX XX XXXX X",
"X XXXX XXXXXXXXX XXX X XXX XXXX X",
"X XXXX XXXXXXXXX XXXX XXX X XXX X",
"X                        X X XX X",
"X XXXX XXXX XXXX XXXX XXX XXX X X",
"X XXXX XXXX XXXX XXXX XXXX XXX  X",
"X XXXX XXXX XXXX XXXX XXXXX XXX X",
"X XXXX XXXX XXXX XXXX  XXXXX XX X",
"X                     X        XX",
"XXXXXXXXXXXXXXXXXXXXXXXXXXXXXXXXX"
};
