/* XPM */
static const char *Rescale_Monochrome_X2_xpm[] = {
/* columns rows colors chars-per-pixel */
"33 23 11 1",
"  c #010101",
". c #1A1A1A",
"X c #434343",
"o c #666666",
"O c #00FFFF",
"+ c #868686",
"@ c #A1A1A1",
"# c #BBBBBB",
"$ c #CCCCCC",
"% c #F1F1F1",
"& c None",
/* pixels */
"&&&&&&&&&&&&&&&&&&&&&&&&&&&&&&&&&",
"&&&&&&&&   &&&&&&&&&&&&&&&&&&&&&&",
"&&&&&&& &&& &&&&&&&&&&&&&&&&&&&&&",
"& &&& &&&&& &&&&&&&&&&&&&&&&&&&&&",
"&& & &&&&& &&&&&&&&&&&&&&&&&&&&&&",
"&&& &&&&& &&&&&&&&&&&&&&&&&&&&&&&",
"&& & &&& &&&&&&&&&&&&&&&&&&&&&&&&",
"& &&& &     &&&&&&&&&&&&&&&&&&&&&",
"&&&&&&&&&&&&&&&&&&&&&&&&&&&&&&&&&",
"&&&&&&&&&&&&&&&&&&&&&&&         &",
"&&&&&&&&&&&&&&&&&&&&&& $$$@$$$  &",
"&&&&&&&&&&&&&&&&&&&&& @@@     X &",
"&&&&&&&&&&&&&&&&&&&& $$$ %%%  X &",
"&&&&&&&&&&&&&&&&&&&         o X &",
"&&&&&&&&&&&&&&&&&&& +++ ### o . &",
"&&&     &&&&&&&&&&& +++ ### o X &",
"&& %%%  &&&& &&&&&& +++ ###  .X &",
"&     o &&&&  &&&&& ooo     X.X &",
"& ### o &&&&   &&&& +++o+++ X. &&",
"& ### o &&&&  &&&&& +++o+++ X &&&",
"& ###  &&&&& &&&&&& +++o+++  &&&&",
"&     &&&&&&&&&&&&&         &&&&&",
"&&&&&&&&&&&&&&&&&&&&&&&&&&&&&&&&&"
};
