/* XPM */
static const char *Rescale_Color_X2_xpm[] = {
/* columns rows colors chars-per-pixel */
"33 23 10 1",
"  c #010101",
". c #006633",
"X c #33FF99",
"o c #990000",
"O c #996600",
"+ c #FFCC00",
"@ c #BBBBBB",
"# c #99FFCC",
"$ c #FFFF99",
"% c None",
/* pixels */
"%%%%%%%%%%%%%%%%%%%%%%%%%%%%%%%%%",
"%%%%%%%%   %%%%%%%%%%%%%%%%%%%%%%",
"%%%%%%% %%% %%%%%%%%%%%%%%%%%%%%%",
"% %%% %%%%% %%%%%%%%%%%%%%%%%%%%%",
"%% % %%%%% %%%%%%%%%%%%%%%%%%%%%%",
"%%% %%%%% %%%%%%%%%%%%%%%%%%%%%%%",
"%% % %%% %%%%%%%%%%%%%%%%%%%%%%%%",
"% %%% %     %%%%%%%%%%%%%%%%%%%%%",
"%%%%%%%%%%%%%%%%%%%%%%%%%%%%%%%%%",
"%%%%%%%%%%%%%%%%%%%%%%%         %",
"%%%%%%%%%%%%%%%%%%%%%% $$$O$$$  %",
"%%%%%%%%%%%%%%%%%%%%% OOO     O %",
"%%%%%%%%%%%%%%%%%%%% $$$ ###  O %",
"%%%%%%%%%%%%%%%%%%%         . O %",
"%%%%%%%%%%%%%%%%%%% +++ XXX . o %",
"%%%     %%%%%%%%%%% +++ XXX . O %",
"%% $$$  %%%% %%%%%% +++ XXX  oO %",
"%     O %%%%  %%%%% OOO     OoO %",
"% +++ O %%%%   %%%% +++O+++ Oo %%",
"% +++ O %%%%  %%%%% +++O+++ O %%%",
"% +++  %%%%% %%%%%% +++O+++  %%%%",
"%     %%%%%%%%%%%%%         %%%%%",
"%%%%%%%%%%%%%%%%%%%%%%%%%%%%%%%%%"
};
