/* XPM */
static char *Rescale_Disabled_X2_xpm[] = {
/* columns rows colors chars-per-pixel */
"33 23 3 1",
"  c #00FFFF",
". c #868686",
"X c None",
/* pixels */
"XXXXXXXXXXXXXXXXXXXXXXXXXXXXXXXXX",
"XXXXXXXX...XXXXXXXXXXXXXXXXXXXXXX",
"XXXXXXX.XXX.XXXXXXXXXXXXXXXXXXXXX",
"X.XXX.XXXXX.XXXXXXXXXXXXXXXXXXXXX",
"XX.X.XXXXX.XXXXXXXXXXXXXXXXXXXXXX",
"XXX.XXXXX.XXXXXXXXXXXXXXXXXXXXXXX",
"XX.X.XXX.XXXXXXXXXXXXXXXXXXXXXXXX",
"X.XXX.X.....XXXXXXXXXXXXXXXXXXXXX",
"XXXXXXXXXXXXXXXXXXXXXXXXXXXXXXXXX",
"XXXXXXXXXXXXXXXXXXXXXXX.........X",
"XXXXXXXXXXXXXXXXXXXXXX.XXX.XXX..X",
"XXXXXXXXXXXXXXXXXXXXX.........X.X",
"XXXXXXXXXXXXXXXXXXXX.XXX.XXX..X.X",
"XXXXXXXXXXXXXXXXXXX.........X.X.X",
"XXXXXXXXXXXXXXXXXXX.XXX.XXX.X...X",
"XXX.....XXXXXXXXXXX.XXX.XXX.X.X.X",
"XX.XXX..XXXX.XXXXXX.XXX.XXX...X.X",
"X.....X.XXXX..XXXXX.........X.X.X",
"X.XXX.X.XXXX...XXXX.XXX.XXX.X..XX",
"X.XXX.X.XXXX..XXXXX.XXX.XXX.X.XXX",
"X.XXX..XXXXX.XXXXXX.XXX.XXX..XXXX",
"X.....XXXXXXXXXXXXX.........XXXXX",
"XXXXXXXXXXXXXXXXXXXXXXXXXXXXXXXXX"
};
