/* XPM */
static const char *Rescale_Monochrome_X3_xpm[] = {
/* columns rows colors chars-per-pixel */
"33 23 11 1",
"  c black",
". c #1A1A1A",
"X c #434343",
"o c #666666",
"O c #00FFFF",
"+ c #868686",
"@ c #A1A1A1",
"# c #BBBBBB",
"$ c #CCCCCC",
"% c #F1F1F1",
"& c None",
/* pixels */
"&&&&&&&&&&&&&&&&&&&&&&&&&&&&&&&&&",
"&&&&&&&&   &&&&&&&&&&&&&&&&&&&&&&",
"&&&&&&& &&& &&&&&&&&&&&&&&&&&&&&&",
"& &&& &&&&& &&&&&&&             &",
"&& & &&&&  &&&&&&& $$$@$$$@$$$  &",
"&&& &&&&&&& &&&&& @@@@@@@@@@@ X &",
"&& & && &&& &&&& $$$@$$$@$$$ .X &",
"& &&& &&   &&&& @@@@@@@     X.X &",
"&&&&&&&&&&&&&& $$$@$$$ %%%  X.. &",
"&&&&&&&&&&&&&             o X.X &",
"&&&&&&&&&&&&& +++o+++ ### o ..X &",
"&&&&&&&&&&&&& +++o+++ ### o X.X &",
"&&&&&&&&&&&&& +++o+++ ###  .X.. &",
"&&&&&&&&&&&&& ooooooo     X.X.X &",
"&&&&&&&&&&&&& +++o+++o+++ X...X &",
"&&&     &&&&& +++o+++o+++ X.X.X &",
"&& %%%  & &&& +++o+++o+++ ..X. &&",
"&     o &  && ooooooooooo X.X &&&",
"& ### o &   & +++o+++o+++ X. &&&&",
"& ### o &  && +++o+++o+++ X &&&&&",
"& ###  && &&& +++o+++o+++  &&&&&&",
"&     &&&&&&&             &&&&&&&",
"&&&&&&&&&&&&&&&&&&&&&&&&&&&&&&&&&"
};
