/* XPM */
static char *Rescale_Color_X3_xpm[] = {
/* columns rows colors chars-per-pixel */
"33 23 10 1",
"  c black",
". c #006633",
"X c #33FF99",
"o c #990000",
"O c #996600",
"+ c #FFCC00",
"@ c #BBBBBB",
"# c #99FFCC",
"$ c #FFFF99",
"% c None",
/* pixels */
"%%%%%%%%%%%%%%%%%%%%%%%%%%%%%%%%%",
"%%%%%%%%   %%%%%%%%%%%%%%%%%%%%%%",
"%%%%%%% %%% %%%%%%%%%%%%%%%%%%%%%",
"% %%% %%%%% %%%%%%%             %",
"%% % %%%%  %%%%%%% $$$O$$$O$$$  %",
"%%% %%%%%%% %%%%% OOOOOOOOOOO O %",
"%% % %% %%% %%%% $$$O$$$O$$$ oO %",
"% %%% %%   %%%% OOOOOOO     OoO %",
"%%%%%%%%%%%%%% $$$O$$$ ###  Ooo %",
"%%%%%%%%%%%%%             . OoO %",
"%%%%%%%%%%%%% +++O+++ XXX . ooO %",
"%%%%%%%%%%%%% +++O+++ XXX . OoO %",
"%%%%%%%%%%%%% +++O+++ XXX  oOoo %",
"%%%%%%%%%%%%% OOOOOOO     OoOoO %",
"%%%%%%%%%%%%% +++O+++O+++ OoooO %",
"%%%     %%%%% +++O+++O+++ OoOoO %",
"%% $$$  % %%% +++O+++O+++ ooOo %%",
"%     O %  %% OOOOOOOOOOO OoO %%%",
"% +++ O %   % +++O+++O+++ Oo %%%%",
"% +++ O %  %% +++O+++O+++ O %%%%%",
"% +++  %% %%% +++O+++O+++  %%%%%%",
"%     %%%%%%%             %%%%%%%",
"%%%%%%%%%%%%%%%%%%%%%%%%%%%%%%%%%"
};
