/* XPM */
static char *Rescale_Disabled_X1_xpm[] = {
/* columns rows colors chars-per-pixel */
"33 23 3 1",
"  c #00FFFF",
". c #868686",
"X c None",
/* pixels */
"XXXXXXXXXXXXXXXXXXXXXXXXXXXXXXXXX",
"XXXXXXXXXXXXXXXXXXXXXXXX.XXXXX.XX",
"XXXXXXXXXXXXXXXXXXXXXXX..XXXX..XX",
"XXXXXXX.............XXXX.XXXXX.XX",
"XXXXXX.XXXXXXXXXXX..XXXX.XX.XX.XX",
"XXXXX.XXXXXXXXXXX.X.XXXX.XXXXX.XX",
"XXXX.XXXXXXXXXXX.XX.XXXX.XX.XX.XX",
"XXX.XXXXXXXXXXX.XXX.XXX...XXX...X",
"XX.XXXXXXXXXXX.XXXX.XXXXXXXXXXXXX",
"X.............XXXXX.XXXXXXXXXXXXX",
"X.XXXXXXXXXXX.XXXXX.XXXXXXXXXXXXX",
"X.XXXXXXXXXXX.XXXXX.XXXXXXXXXXXXX",
"X.XXXXXXXXXXX.XXXXX.XXXXXXXXXXXXX",
"X.XXXXXXXXXXX.XXXXX.XXXXXXXXXXXXX",
"X.XXXXXXXXXXX.XXXXX.XXXXXXXXXXXXX",
"X.XXXXXXXXXXX.XXXXX.XXXXXXX.....X",
"X.XXXXXXXXXXX.XXXX.XX.XXXX.XXX..X",
"X.XXXXXXXXXXX.XXX.XXX..XX.....X.X",
"X.XXXXXXXXXXX.XX.XXXX...X.XXX.X.X",
"X.XXXXXXXXXXX.X.XXXXX..XX.XXX.X.X",
"X.XXXXXXXXXXX..XXXXXX.XXX.XXX..XX",
"X.............XXXXXXXXXXX.....XXX",
"XXXXXXXXXXXXXXXXXXXXXXXXXXXXXXXXX"
};
