/* XPM */
static const char *Rescale_Disabled_X3_xpm[] = {
/* columns rows colors chars-per-pixel */
"33 23 3 1",
"  c #00FFFF",
". c #868686",
"X c None",
/* pixels */
"XXXXXXXXXXXXXXXXXXXXXXXXXXXXXXXXX",
"XXXXXXXX...XXXXXXXXXXXXXXXXXXXXXX",
"XXXXXXX.XXX.XXXXXXXXXXXXXXXXXXXXX",
"X.XXX.XXXXX.XXXXXXX.............X",
"XX.X.XXXX..XXXXXXX.XXX.XXX.XXX..X",
"XXX.XXXXXXX.XXXXX.............X.X",
"XX.X.XX.XXX.XXXX.XXX.XXX.XXX..X.X",
"X.XXX.XX...XXXX.............X.X.X",
"XXXXXXXXXXXXXX.XXX.XXX.XXX..X...X",
"XXXXXXXXXXXXX.............X.X.X.X",
"XXXXXXXXXXXXX.XXX.XXX.XXX.X...X.X",
"XXXXXXXXXXXXX.XXX.XXX.XXX.X.X.X.X",
"XXXXXXXXXXXXX.XXX.XXX.XXX...X...X",
"XXXXXXXXXXXXX.............X.X.X.X",
"XXXXXXXXXXXXX.XXX.XXX.XXX.X...X.X",
"XXX.....XXXXX.XXX.XXX.XXX.X.X.X.X",
"XX.XXX..X.XXX.XXX.XXX.XXX...X..XX",
"X.....X.X..XX.............X.X.XXX",
"X.XXX.X.X...X.XXX.XXX.XXX.X..XXXX",
"X.XXX.X.X..XX.XXX.XXX.XXX.X.XXXXX",
"X.XXX..XX.XXX.XXX.XXX.XXX..XXXXXX",
"X.....XXXXXXX.............XXXXXXX",
"XXXXXXXXXXXXXXXXXXXXXXXXXXXXXXXXX"
};
