/* XPM */
static char *TB_Color_Brush_xpm[] = {
/* columns rows colors chars-per-pixel */
"23 23 12 1",
"  c black",
". c #000099",
"X c #FF6633",
"o c #FFCC00",
"O c #868686",
"+ c #BBBBBB",
"@ c #9999FF",
"# c #FFCC99",
"$ c gray84",
"% c #CCCCFF",
"& c gray100",
"* c None",
/* pixels */
"***********************",
"*              ********",
"* oooooooooooo ********",
"* oooooooooooo ********",
"* oooooooooo o ********",
"* ooooooooo &  ********",
"* oooooooo  $& ********",
"* ooooooo &$ $& *******",
"* oooooo & $$ $& ******",
"* ooooo &$$ $$$$& *****",
"* oooo &$$$$ $$O % ****",
"* ooo &$$ $$$$O %% ****",
"* oo O $$$ $$O @%% ****",
"* ooo O $$$ O @@@ *****",
"*      OO$$O @@@ ******",
"******* O O ..@ # *****",
"******** O ... X % ****",
"********* ... * .@% ***",
"**********   *** .@% **",
"***************** .@% *",
"****************** .@ *",
"*******************  **",
"***********************"
};
