/* XPM */
static const char *TB_Color_Mouse_Rubber_Band_xpm[] = {
/* columns rows colors chars-per-pixel */
"23 23 9 1",
"  c #010101",
". c #660033",
"X c #6666FF",
"o c #999900",
"O c #FFFF33",
"+ c #BBBBBB",
"@ c #FFFFCC",
"# c #E4E4E4",
"$ c None",
/* pixels */
"$$$$$$$$$$$$$$$$$$$$$$$",
"$.................$$$$$",
"$.        ........$$$$$",
"$. XXXXXX ######..$$$$$",
"$. XXXXXX ######..$$$$$",
"$. XXXXXX ######..$$$$$",
"$. XXXXXX ### ##..$$$$$",
"$. XXXXXX ###  #..$$$$$",
"$. XXXXXX ### @ ..$$$$$",
"$.        ### O@ .$$$$$",
"$..########## OO@ $$$$$",
"$..########## oOO@ $$$$",
"$..########## oOOO@ $$$",
"$..########## ooOOO@ $$",
"$..########## ooO@    $",
"$..########## oo O $$$$",
"$............ o  o $$$$",
"$............  .. @ $$$",
"$$$$$$$$$$$$$ $$$ o $$$",
"$$$$$$$$$$$$$$$$$$ @ $$",
"$$$$$$$$$$$$$$$$$$ o $$",
"$$$$$$$$$$$$$$$$$$$ $$$",
"$$$$$$$$$$$$$$$$$$$$$$$"
};
