/* XPM */
static char *TB_Color_Columns_Z_xpm[] = {
/* columns rows colors chars-per-pixel */
"23 23 9 1",
"  c black",
". c blue",
"X c #006699",
"o c #009900",
"O c #00CCFF",
"+ c red",
"@ c #BBBBBB",
"# c #99FFFF",
"$ c None",
/* pixels */
"$$$$$$$$$$$$$$$$$$$$$$$",
"$.$$$$      $$$$$     $",
"$.$$$ OOOO  $$$$$$$$$ $",
"$.$$ OOOO # $$$$$$$$ $$",
"$.$      ## $$$$$$$ $$$",
"$.$ XXXX ## $$$$$$ $$$$",
"$.$ XXXX ## $$$$$ $$$$$",
"$.$ XXXX ## $$$$$     $",
"$.$ XXXX ## $$o$$$$$$$$",
"$.$ XXXX ## $o$$$$$$$$$",
"$.$ XXXX ## o$$$$$$$$$$",
"$.$ XXXX ## $$$$$$$$$$$",
"$.$ XXXX ## $$$$$$$$$$$",
"$.$ XXXX ## $$$$$$$$$$$",
"$.$ XXXX ## $$$$$$$$$$$",
"$.$ XXXX ## $$$$$$$$$$$",
"$.$ XXXX ## $$$$$$$$$$$",
"$.$ XXXX # $$$$$$$$$$$$",
"$.$ XXXX  $$$$$$$$$$$$$",
"$.$      $$$$$$$$$$$$$$",
"$.o$$$$$$$$$$$$$$$$$$$$",
"$ ++++++++++++++++++++$",
"$$$$$$$$$$$$$$$$$$$$$$$"
};
