/* XPM */
static char *TB_Color_Mouse_Drag_xpm[] = {
/* columns rows colors chars-per-pixel */
"23 23 7 1",
"  c black",
". c #6666FF",
"X c #999900",
"o c #FFFF33",
"O c #BBBBBB",
"+ c #FFFFCC",
"@ c None",
/* pixels */
"@@@@@@@@@@@@@@@@@@@@@@@",
"@               @@@@@@@",
"@ ...... ...... @@@@@@@",
"@ ...... ...... @@@@@@@",
"@ ...... ...... @@@@@@@",
"@ ...... ...... @@@@@@@",
"@ ...... .... . @@@@@@@",
"@ ...... ....   @@@@@@@",
"@             + @@@@@@@",
"@ ...... @@@@ o+ @@@@@@",
"@ ...... @@@@ oo+ @@@@@",
"@ ...... @@@@ Xoo+ @@@@",
"@ ...... @@@@ Xooo+ @@@",
"@ ...... @@@@ XXooo+ @@",
"@ ...... @@@@ XXo+    @",
"@        @@@@ XX o @@@@",
"@@@@@@@@@@@@@ X  X @@@@",
"@@@@@@@@@@@@@  @@ + @@@",
"@@@@@@@@@@@@@ @@@ X @@@",
"@@@@@@@@@@@@@@@@@@ + @@",
"@@@@@@@@@@@@@@@@@@ X @@",
"@@@@@@@@@@@@@@@@@@@ @@@",
"@@@@@@@@@@@@@@@@@@@@@@@"
};
