/* XPM */
static const char *TB_Color_Columns_Y_xpm[] = {
/* columns rows colors chars-per-pixel */
"23 23 9 1",
"  c black",
". c #336633",
"X c #0000FF",
"o c #009900",
"O c #33CC33",
"+ c #FF0000",
"@ c #BBBBBB",
"# c #99FF99",
"$ c None",
/* pixels */
"$$$$$$$$$$$$$$$$$$$$$$$",
"$X$$$$$$$$$$$$$$$ $$$ $",
"$X$$$$$$$$$$$$$$$ $$$ $",
"$X$$$$$$$$$$$$$$$$ $ $$",
"$X$$$$$$$$$$$$$$$$$ $$$",
"$X$$$$$$$$$$$$$$$$$ $$$",
"$X$$$$$$$$$      $$ $$$",
"$X$$$$$$$$ OOOO  $$ $$$",
"$X$$$$$$$ OOOO # $$$$$$",
"$X$$$$$$ OOOO ## $$$$$$",
"$X$$$$$ OOOO ### $$$$$$",
"$X$$$$ OOOO #### $$$$$$",
"$X$$$ OOOO #### $$$$$$$",
"$X$$ OOOO #### $$$$$$$$",
"$X$      #### $$$$$$$$$",
"$X$ .... ### $$$$$$$$$$",
"$X$ .... ## $$$$$$$$$$$",
"$X$ .... # $$$$$$$$$$$$",
"$X$ ....  $$$$$$$$$$$$$",
"$X$      $$$$$$$$$$$$$$",
"$Xo$$$$$$$$$$$$$$$$$$$$",
"$ ++++++++++++++++++++$",
"$$$$$$$$$$$$$$$$$$$$$$$"
};
