/* XPM */
static char *TB_Color_Symmetrical_Z_xpm[] = {
/* columns rows colors chars-per-pixel */
"23 23 9 1",
"  c black",
". c #0000FF",
"X c #006699",
"o c #009900",
"O c #00CCFF",
"+ c #FF0000",
"@ c #BBBBBB",
"# c #99FFFF",
"$ c None",
/* pixels */
"$$$$$$$$$$$$$$$$$$$$$$$",
"$.$$$$      $$$$$     $",
"$.$$$ OOOO  $$$$$$$$$ $",
"$.$$ OOOO # $$$$$$$$ $$",
"$.$      ## $$$$$$$ $$$",
"$.$ XXXX ## $$$$$$ $$$$",
"$.$ XXXX ## $$$$$ $$$$$",
"$.$ XXXX # $$$$$$     $",
"$.$ XXXX  $$$$o$$$$$$$$",
"$.$      $$$$o$$$$$$$$$",
"$.$$$$$$$$$$o$$$$$$$$$$",
"$.$$$$      $$$$$$$$$$$",
"$.$$$ OOOO  $$$$$$$$$$$",
"$.$$ OOOO # $$$$$$$$$$$",
"$.$      ## $$$$$$$$$$$",
"$.$ XXXX ## $$$$$$$$$$$",
"$.$ XXXX ## $$$$$$$$$$$",
"$.$ XXXX # $$$$$$$$$$$$",
"$.$ XXXX  $$$$$$$$$$$$$",
"$.$      $$$$$$$$$$$$$$",
"$.o$$$$$$$$$$$$$$$$$$$$",
"$ ++++++++++++++++++++$",
"$$$$$$$$$$$$$$$$$$$$$$$"
};
