/* XPM */
static char *TB_Disabled_Columns_Y_xpm[] = {
/* columns rows colors chars-per-pixel */
"23 23 3 1",
"  c #868686",
". c #BBBBBB",
"X c None",
/* pixels */
"XXXXXXXXXXXXXXXXXXXXXXX",
"X XXXXXXXXXXXXXXX XXX X",
"X XXXXXXXXXXXXXXX XXX X",
"X XXXXXXXXXXXXXXXX X XX",
"X XXXXXXXXXXXXXXXXX XXX",
"X XXXXXXXXXXXXXXXXX XXX",
"X XXXXXXXXX      XX XXX",
"X XXXXXXXX XXXX  XX XXX",
"X XXXXXXX XXXX X XXXXXX",
"X XXXXXX XXXX XX XXXXXX",
"X XXXXX XXXX XXX XXXXXX",
"X XXXX XXXX XXXX XXXXXX",
"X XXX XXXX XXXX XXXXXXX",
"X XX XXXX XXXX XXXXXXXX",
"X X      XXXX XXXXXXXXX",
"X X XXXX XXX XXXXXXXXXX",
"X X XXXX XX XXXXXXXXXXX",
"X X XXXX X XXXXXXXXXXXX",
"X X XXXX  XXXXXXXXXXXXX",
"X X      XXXXXXXXXXXXXX",
"X  XXXXXXXXXXXXXXXXXXXX",
"X                     X",
"XXXXXXXXXXXXXXXXXXXXXXX"
};
