/* XPM */
static const char *TB_Disabled_Pen_Variable_xpm[] = {
/* columns rows colors chars-per-pixel */
"23 23 3 1",
"  c #868686",
". c #BBBBBB",
"X c None",
/* pixels */
"XXXXXXXXXXXXXXXXXXXXXXX",
"X              XXXXXXXX",
"X XXXXXXXXXXXX XXXXXXXX",
"X XXXXXXXXXXXX XXXXXXXX",
"X XXXXXXXXXXXX XXXXXXXX",
"X XXX      XXX XXXXXXXX",
"X XXX      XXX XXX  XXX",
"X XXX      XXX XX XX XX",
"X XXX      XXX X  XXX X",
"X XXX      XXX   X XX X",
"X XXX      XXX XX X  XX",
"X XXXXXXXXXXX XXXX  XXX",
"X XXXXXXXXXX XXXXX XXXX",
"X XXXXXXXXX XXXXX XXXXX",
"X          XXXXX XXXXXX",
"XXXXXXXXX XXXXX XXXXXXX",
"XXXXXXXX X XXX XXXXXXXX",
"XXXXXXXX XX X XXXXXXXXX",
"XXXXXXX X XX XXXXXXXXXX",
"XXXXXX XXX  XXXXXXXXXXX",
"XXXXXX XX XXXXXXXXXXXXX",
"XXXXXX   X            X",
"XXXXXXXXXXXXXXXXXXXXXXX"
};
