/* XPM */
static char *TB_Disabled_Columns_X_xpm[] = {
/* columns rows colors chars-per-pixel */
"23 23 3 1",
"  c #868686",
". c #BBBBBB",
"X c None",
/* pixels */
"XXXXXXXXXXXXXXXXXXXXXXX",
"X XXXXXXXXXXXXXXX XXX X",
"X XXXXXXXXXXXXXXX XXX X",
"X XXXXXXXXXXXXXXXX X XX",
"X XXXXXXXXXXXXXXXXX XXX",
"X XXXXXXXXXXXXXXXX X XX",
"X XXXXXXXXXXXXXXX XXX X",
"X XXXXXXXXXXXXXXX XXX X",
"X XXXXXXXXXXXX XXXXXXXX",
"X XXXXXXXXXXX XXXXXXXXX",
"X XXXXXXXXXX XXXXXXXXXX",
"X XXXX                X",
"X XXX XXXXXXXXXXXXXX  X",
"X XX XXXXXXXXXXXXXX X X",
"X X                XX X",
"X X XXXXXXXXXXXXXX XX X",
"X X XXXXXXXXXXXXXX XX X",
"X X XXXXXXXXXXXXXX X XX",
"X X XXXXXXXXXXXXXX  XXX",
"X X                XXXX",
"X  XXXXXXXXXXXXXXXXXXXX",
"X                     X",
"XXXXXXXXXXXXXXXXXXXXXXX"
};
