/* XPM */
static char *TB_Disabled_Brush_xpm[] = {
/* columns rows colors chars-per-pixel */
"23 23 3 1",
"  c #868686",
". c #BBBBBB",
"X c None",
/* pixels */
"XXXXXXXXXXXXXXXXXXXXXXX",
"X              XXXXXXXX",
"X XXXXXXXXXXXX XXXXXXXX",
"X XXXXXXXXXXXX XXXXXXXX",
"X XXXXXXXXXX X XXXXXXXX",
"X XXXXXXXXX X  XXXXXXXX",
"X XXXXXXXX  XX XXXXXXXX",
"X XXXXXXX XX XX XXXXXXX",
"X XXXXXX X XX XX XXXXXX",
"X XXXXX XXX XXXXX XXXXX",
"X XXXX XXXXX XXX X XXXX",
"X XXX XXX XXXXX XX XXXX",
"X XX X XXX XXX XXX XXXX",
"X XXX X XXX X XXX XXXXX",
"X      XXXXX XXX XXXXXX",
"XXXXXXX X X XXX X XXXXX",
"XXXXXXXX X XXX X X XXXX",
"XXXXXXXXX XXX X XXX XXX",
"XXXXXXXXXX   XXX XXX XX",
"XXXXXXXXXXXXXXXXX XXX X",
"XXXXXXXXXXXXXXXXXX XX X",
"XXXXXXXXXXXXXXXXXXX  XX",
"XXXXXXXXXXXXXXXXXXXXXXX"
};
