/* XPM */
static char *TB_Disabled_Symmetrical_Z_xpm[] = {
/* columns rows colors chars-per-pixel */
"23 23 3 1",
"  c #868686",
". c #BBBBBB",
"X c None",
/* pixels */
"XXXXXXXXXXXXXXXXXXXXXXX",
"X XXXX      XXXXX     X",
"X XXX XXXX  XXXXXXXXX X",
"X XX XXXX X XXXXXXXX XX",
"X X      XX XXXXXXX XXX",
"X X XXXX XX XXXXXX XXXX",
"X X XXXX XX XXXXX XXXXX",
"X X XXXX X XXXXXX     X",
"X X XXXX  XXXX XXXXXXXX",
"X X      XXXX XXXXXXXXX",
"X XXXXXXXXXX XXXXXXXXXX",
"X XXXX      XXXXXXXXXXX",
"X XXX XXXX  XXXXXXXXXXX",
"X XX XXXX X XXXXXXXXXXX",
"X X      XX XXXXXXXXXXX",
"X X XXXX XX XXXXXXXXXXX",
"X X XXXX XX XXXXXXXXXXX",
"X X XXXX X XXXXXXXXXXXX",
"X X XXXX  XXXXXXXXXXXXX",
"X X      XXXXXXXXXXXXXX",
"X  XXXXXXXXXXXXXXXXXXXX",
"X                     X",
"XXXXXXXXXXXXXXXXXXXXXXX"
};
