/* XPM */
static char *TB_Disabled_Symmetrical_Y_xpm[] = {
/* columns rows colors chars-per-pixel */
"23 23 3 1",
"  c #868686",
". c #BBBBBB",
"X c None",
/* pixels */
"XXXXXXXXXXXXXXXXXXXXXXX",
"X XXXXXXXXXXXXXXX XXX X",
"X XXXXXXXXXXXXXXX XXX X",
"X XXXXXXXXXXXXXXXX X XX",
"X XXXXXXXXXXXXXXXXX XXX",
"X XXXXXXXXXXXXXXXXX XXX",
"X XXXXXXXXX      XX XXX",
"X XXXXXXXX XXXX  XX XXX",
"X XXXXXXX XXXX X XXXXXX",
"X XXXXXX      XX XXXXXX",
"X XXXXXX XXXX XX XXXXXX",
"X XXXX      X XX XXXXXX",
"X XXX XXXX  X X XXXXXXX",
"X XX XXXX X X  XXXXXXXX",
"X X      XX   XXXXXXXXX",
"X X XXXX XX XXXXXXXXXXX",
"X X XXXX XX XXXXXXXXXXX",
"X X XXXX X XXXXXXXXXXXX",
"X X XXXX  XXXXXXXXXXXXX",
"X X      XXXXXXXXXXXXXX",
"X  XXXXXXXXXXXXXXXXXXXX",
"X                     X",
"XXXXXXXXXXXXXXXXXXXXXXX"
};
