/* XPM */
static const char *TB_Disabled_Eraser_xpm[] = {
/* columns rows colors chars-per-pixel */
"23 23 3 1",
"  c #868686",
". c #BBBBBB",
"X c None",
/* pixels */
"XXXXXXXXXXXXXXXXXXXXXXX",
"X              XXXXXXXX",
"X XXXXXXXXXXXX XXXXXXXX",
"X X XXXXXXXX X XXXXXXXX",
"X XX XXXXXX XX XXXXXXXX",
"X XXX XXXX XXX XXXXXXXX",
"X XXXX XX XXXX XXXXXXXX",
"X XXXXX  XXXXX XXXXXXXX",
"X XXXXX  XXXXX XXXXXXXX",
"X XXXX XX XXXX XXXXXXXX",
"X XXX XXXX XX         X",
"X XX XXXXXX  XXXXXXXX X",
"X X XXXXXXX XXXXXXX X X",
"X XXXXXXXX XXXXXXX XX X",
"X         XXXXXXX XXX X",
"XXXXXXXX XXXXXXX XXXX X",
"XXXXXXX        XXXXX XX",
"XXXXXXX XXXXXXX XXX XXX",
"XXXXXXX XXXXXXX XX XXXX",
"XXXXXXX XXXXXXX X XXXXX",
"XXXXXXX XXXXXXX  XXXXXX",
"XXXXXXX         XXXXXXX",
"XXXXXXXXXXXXXXXXXXXXXXX"
};
