/* XPM */
static char *TB_Disabled_Mouse_Drag_xpm[] = {
/* columns rows colors chars-per-pixel */
"23 23 3 1",
"  c #868686",
". c #BBBBBB",
"X c None",
/* pixels */
"XXXXXXXXXXXXXXXXXXXXXXX",
"X               XXXXXXX",
"X XXXXXX XXXXXX XXXXXXX",
"X XXXXXX XXXXXX XXXXXXX",
"X XXXXXX XXXXXX XXXXXXX",
"X XXXXXX XXXXXX XXXXXXX",
"X XXXXXX XXXX X XXXXXXX",
"X XXXXXX XXXX   XXXXXXX",
"X             X XXXXXXX",
"X XXXXXX XXXX XX XXXXXX",
"X XXXXXX XXXX XXX XXXXX",
"X XXXXXX XXXX XXXX XXXX",
"X XXXXXX XXXX XXXXX XXX",
"X XXXXXX XXXX XXXXXX XX",
"X XXXXXX XXXX XXXX    X",
"X        XXXX XX X XXXX",
"XXXXXXXXXXXXX X  X XXXX",
"XXXXXXXXXXXXX  XX X XXX",
"XXXXXXXXXXXXX XXX X XXX",
"XXXXXXXXXXXXXXXXXX X XX",
"XXXXXXXXXXXXXXXXXX X XX",
"XXXXXXXXXXXXXXXXXXX XXX",
"XXXXXXXXXXXXXXXXXXXXXXX"
};
