/* XPM */
static char *TB_Disabled_Symmetrical_X_xpm[] = {
/* columns rows colors chars-per-pixel */
"23 23 3 1",
"  c #868686",
". c #BBBBBB",
"X c None",
/* pixels */
"XXXXXXXXXXXXXXXXXXXXXXX",
"X XXXXXXXXXXXXXXX XXX X",
"X XXXXXXXXXXXXXXX XXX X",
"X XXXXXXXXXXXXXXXX X XX",
"X XXXXXXXXXXXXXXXXX XXX",
"X XXXXXXXXXXXXXXXX X XX",
"X XXXXXXXXXXXXXXX XXX X",
"X XXXXXXXXXXXXXXX XXX X",
"X XXXXXXXXXXXX XXXXXXXX",
"X XXXXXXXXXXX XXXXXXXXX",
"X XXXXXXXXXX XXXXXXXXXX",
"X XXXX      XXXX      X",
"X XXX XXXX  XXX XXXX  X",
"X XX XXXX X XX XXXX X X",
"X X      XX X      XX X",
"X X XXXX XX X XXXX XX X",
"X X XXXX XX X XXXX XX X",
"X X XXXX X XX XXXX X XX",
"X X XXXX  XXX XXXX  XXX",
"X X      XXXX      XXXX",
"X  XXXXXXXXXXXXXXXXXXXX",
"X                     X",
"XXXXXXXXXXXXXXXXXXXXXXX"
};
