/* XPM */
static char *TB_Disabled_Columns_Z_xpm[] = {
/* columns rows colors chars-per-pixel */
"23 23 3 1",
"  c #868686",
". c #BBBBBB",
"X c None",
/* pixels */
"XXXXXXXXXXXXXXXXXXXXXXX",
"X XXXX      XXXXX     X",
"X XXX XXXX  XXXXXXXXX X",
"X XX XXXX X XXXXXXXX XX",
"X X      XX XXXXXXX XXX",
"X X XXXX XX XXXXXX XXXX",
"X X XXXX XX XXXXX XXXXX",
"X X XXXX XX XXXXX     X",
"X X XXXX XX XX XXXXXXXX",
"X X XXXX XX X XXXXXXXXX",
"X X XXXX XX  XXXXXXXXXX",
"X X XXXX XX XXXXXXXXXXX",
"X X XXXX XX XXXXXXXXXXX",
"X X XXXX XX XXXXXXXXXXX",
"X X XXXX XX XXXXXXXXXXX",
"X X XXXX XX XXXXXXXXXXX",
"X X XXXX XX XXXXXXXXXXX",
"X X XXXX X XXXXXXXXXXXX",
"X X XXXX  XXXXXXXXXXXXX",
"X X      XXXXXXXXXXXXXX",
"X  XXXXXXXXXXXXXXXXXXXX",
"X                     X",
"XXXXXXXXXXXXXXXXXXXXXXX"
};
