/* XPM */
static char *TB_Monochrome_Symmetrical_X_xpm[] = {
/* columns rows colors chars-per-pixel */
"23 23 6 1",
"  c black",
". c #666666",
"X c #BBBBBB",
"o c #99FFFF",
"O c #F1F1F1",
"+ c None",
/* pixels */
"+++++++++++++++++++++++",
"+ +++++++++++++++ +++ +",
"+ +++++++++++++++ +++ +",
"+ ++++++++++++++++ + ++",
"+ +++++++++++++++++ +++",
"+ ++++++++++++++++ + ++",
"+ +++++++++++++++ +++ +",
"+ +++++++++++++++ +++ +",
"+ ++++++++++++ ++++++++",
"+ +++++++++++ +++++++++",
"+ ++++++++++ ++++++++++",
"+ ++++      ++++      +",
"+ +++ XXXX  +++ XXXX  +",
"+ ++ XXXX O ++ XXXX O +",
"+ +      OO +      OO +",
"+ + .... OO + .... OO +",
"+ + .... OO + .... OO +",
"+ + .... O ++ .... O ++",
"+ + ....  +++ ....  +++",
"+ +      ++++      ++++",
"+  ++++++++++++++++++++",
"+                     +",
"+++++++++++++++++++++++"
};
