/* XPM */
static char *TB_Monochrome_Columns_Y_xpm[] = {
/* columns rows colors chars-per-pixel */
"23 23 6 1",
"  c black",
". c gray40",
"X c #BBBBBB",
"o c #99FFFF",
"O c #F1F1F1",
"+ c None",
/* pixels */
"+++++++++++++++++++++++",
"+ +++++++++++++++ +++ +",
"+ +++++++++++++++ +++ +",
"+ ++++++++++++++++ + ++",
"+ +++++++++++++++++ +++",
"+ +++++++++++++++++ +++",
"+ +++++++++      ++ +++",
"+ ++++++++ XXXX  ++ +++",
"+ +++++++ XXXX O ++++++",
"+ ++++++ XXXX OO ++++++",
"+ +++++ XXXX OOO ++++++",
"+ ++++ XXXX OOOO ++++++",
"+ +++ XXXX OOOO +++++++",
"+ ++ XXXX OOOO ++++++++",
"+ +      OOOO +++++++++",
"+ + .... OOO ++++++++++",
"+ + .... OO +++++++++++",
"+ + .... O ++++++++++++",
"+ + ....  +++++++++++++",
"+ +      ++++++++++++++",
"+  ++++++++++++++++++++",
"+                     +",
"+++++++++++++++++++++++"
};
