/* XPM */
static const char *TB_Monochrome_Pen_Variable_xpm[] = {
/* columns rows colors chars-per-pixel */
"23 23 12 1",
"  c #010101",
". c #515151",
"X c #6B6B6B",
"o c #7A7A7A",
"O c #ADADAD",
"+ c #BBBBBB",
"@ c #C1C1C1",
"# c #C6C6C6",
"$ c #D6D6D6",
"% c #F9F9F9",
"& c #FFFFFF",
"* c None",
/* pixels */
"***********************",
"*              ********",
"* &&&&&&&&&&&& ********",
"* &&&&&&&&&&&& ********",
"* &&&&&&&&&&&& ********",
"* &&&      &&& ********",
"* &&&      &&& ***  ***",
"* &&&      &&& ** %# **",
"* &&&      &&& *  ##o *",
"* &&&      &&&   @ oo *",
"* &&&      &&& %# .  **",
"* &&&&&&&&&&& %##o  ***",
"* &&&&&&&&&& %##oo ****",
"* &&&&&&&&& %##oo *****",
"*          %##oo ******",
"********* %##oo *******",
"******** % #oo ********",
"******** ## o *********",
"******* $ oo **********",
"****** $OO  ***********",
"****** XO *************",
"******   *            *",
"***********************"
};
