/* XPM */
static char *TB_Monochrome_Eraser_xpm[] = {
/* columns rows colors chars-per-pixel */
"23 23 8 1",
"  c black",
". c #868686",
"X c #999999",
"o c #BBBBBB",
"O c #BCBCBC",
"+ c #CCCCCC",
"@ c #E0E0E0",
"# c None",
/* pixels */
"#######################",
"#              ########",
"# ++++++++++++ ########",
"# + ++++++++ + ########",
"# ++ ++++++ ++ ########",
"# +++ ++++ +++ ########",
"# ++++ ++ ++++ ########",
"# +++++  +++++ ########",
"# +++++  +++++ ########",
"# ++++ ++ ++++ ########",
"# +++ ++++ ++        .#",
"# ++ ++++++  XXXXOO@X #",
"# + +++++++ XXXOOO@ @ #",
"# ++++++++ XXOOOO@ @O #",
"#         XOOOO@@ @OO #",
"######## XOO@@@@ @OOO #",
"#######.       X@OOO ##",
"####### OOO@@@@ @OO ###",
"####### XOOOO@@ @O ####",
"####### XXOOOO@ O #####",
"####### XXXXOO@  ######",
"#######.       .#######",
"#######################"
};
