/* XPM */
static char *TB_Monochrome_Mouse_Rubber_Band_xpm[] = {
/* columns rows colors chars-per-pixel */
"23 23 8 1",
"  c black",
". c #232323",
"X c gray68",
"o c #BBBBBB",
"O c gray80",
"+ c gray88",
"@ c gray100",
"# c None",
/* pixels */
"#######################",
"#.................#####",
"#.        ........#####",
"#. @@@@@@ OOOOOO..#####",
"#. @@@@@@ OOOOOO..#####",
"#. @@@@@@ OOOOOO..#####",
"#. @@@@@@ OOO OO..#####",
"#. @@@@@@ OOO  O..#####",
"#. @@@@@@ OOO @ ..#####",
"#.        OOO +@ .#####",
"#..OOOOOOOOOO ++@ #####",
"#..OOOOOOOOOO X++@ ####",
"#..OOOOOOOOOO X+++@ ###",
"#..OOOOOOOOOO XX+++@ ##",
"#..OOOOOOOOOO XX+@    #",
"#..OOOOOOOOOO XX + ####",
"#............ X  X ####",
"#............  .. @ ###",
"############# ### X ###",
"################## @ ##",
"################## X ##",
"################### ###",
"#######################"
};
