/* XPM */
static const char *TB_Monochrome_Symmetrical_Y_xpm[] = {
/* columns rows colors chars-per-pixel */
"23 23 6 1",
"  c black",
". c #666666",
"X c #BBBBBB",
"o c #99FFFF",
"O c #F1F1F1",
"+ c None",
/* pixels */
"+++++++++++++++++++++++",
"+ +++++++++++++++ +++ +",
"+ +++++++++++++++ +++ +",
"+ ++++++++++++++++ + ++",
"+ +++++++++++++++++ +++",
"+ +++++++++++++++++ +++",
"+ +++++++++      ++ +++",
"+ ++++++++ XXXX  ++ +++",
"+ +++++++ XXXX O ++++++",
"+ ++++++      OO ++++++",
"+ ++++++ .... OO ++++++",
"+ ++++      . OO ++++++",
"+ +++ XXXX  . O +++++++",
"+ ++ XXXX O .  ++++++++",
"+ +      OO   +++++++++",
"+ + .... OO +++++++++++",
"+ + .... OO +++++++++++",
"+ + .... O ++++++++++++",
"+ + ....  +++++++++++++",
"+ +      ++++++++++++++",
"+  ++++++++++++++++++++",
"+                     +",
"+++++++++++++++++++++++"
};
