/* XPM */
static const char *Transform_Monochrome_Nudge_Z_Right_xpm[] = {
/* columns rows colors chars-per-pixel */
"33 23 7 1",
"  c black",
". c #666666",
"X c #FF6600",
"o c #BBBBBB",
"O c #DCDCDC",
"+ c #F1F1F1",
"@ c None",
/* pixels */
"@@@@@@@@@@@@@@@@@@@@@@@@@@@@@@@@@",
"@@@@@@@@@@@ @@@@      @@@@@@@@@@@",
"@@@@@@@@@@@ @@@ oooo  @@@@@@@@@@@",
"@@@@@@@@@@@ @@ oooo + @@@@@@@@@@@",
"@@@@  @@@@@ @      ++ @@@@@@@@@@@",
"@@@@   @@@@ @ .... ++ @@@@@@@@@@@",
"@@@@    @@@ @ .... ++ @@@@@@@@@@@",
"@        @@ @ .... + @@@@@@@@@@@@",
"@         @ @ ....  @@@@ @@@@@@@@",
"@        @@ @      @@@@ @@@@@@@@@",
"@@@@    @@@ @@@@@@@@@@ @@@@@@@@@@",
"@@@@   @@@@ @@@@OOOOOO@@@@@@@@@@@",
"@@@@  @@@@@ @@@O@@@@OO@@@@@@@@@@@",
"@@@@@@@@@@@ @@O@@@@O@O@@@@@@@@@@@",
"@@@@@@@@@@@ @OOOOOO@@O@@@@@@@@@@@",
"@@@     @@@ @O@@@@O@@O@@@@@@@@@@@",
"@@@@@@@ @@@ @O@@@@O@@O@@@@@@@@@@@",
"@@@@@@ @@@@ @O@@@@O@O@@@@@@@@@@@@",
"@@@@@ @@@@@ @O@@@@OO@@@@@@@@@@@@@",
"@@@@ @@@@@@ @OOOOOO@@@@@@@@@@@@@@",
"@@@ @@@@@@@  @@@@@@@@@@@@@@@@@@@@",
"@@@     @@@                     @",
"@@@@@@@@@@@@@@@@@@@@@@@@@@@@@@@@@"
};
