/* XPM */
static char *Transform_Disabled_Rotate_Z_Left_xpm[] = {
/* columns rows colors chars-per-pixel */
"33 23 3 1",
"  c #868686",
". c #BBBBBB",
"X c None",
/* pixels */
"XXXXXXXXXXXXXXXXXXXXXXXXXXXXXXXXX",
"X XXXXXXXXXXXXXXXXXXXXXXXXXXXXXXX",
"X XXXXXXX       XXXXXXXXXXXXXXXXX",
"X XXXXXX XXXXX  XXXXXXXXXXXXXXXXX",
"X XXXXX XXXXX X XXXXXXXXXXX  XXXX",
"X XXXX XXXXX XX XXXXXXXXXX   XXXX",
"X XXX XXXXX XXX XXXXXXXXX    XXXX",
"X XX XXXXX XXXX XXXXXXXX        X",
"X X       XXXXX       X         X",
"X X XXXXX XXXX XXXXX  XX        X",
"X X XXXXX XXX XXXXX X XXX    XXXX",
"X X XXXXX XX       XX XXXX   XXXX",
"X X XXXXX X XXXXXX XX XXXXX  XXXX",
"X X XXXXX  XXXXXXX XX XXXXXXXXXXX",
"X X       XXXXXXXX X XXXXXXXXXXXX",
"X XXXX XXXXXXXXXXX  XXXXX     XXX",
"X XXXX             XXXXXXXXXX XXX",
"X XXX XXXXXXXXXXXXXXXXXXXXXX XXXX",
"X XX XXXXXXXXXXXXXXXXXXXXXX XXXXX",
"X X XXXXXXXXXXXXXXXXXXXXXX XXXXXX",
"X  XXXXXXXXXXXXXXXXXXXXXX XXXXXXX",
"X                     XXX     XXX",
"XXXXXXXXXXXXXXXXXXXXXXXXXXXXXXXXX"
};
