/* XPM */
static char *Transform_Monochrome_Rotate_X_Left_xpm[] = {
/* columns rows colors chars-per-pixel */
"33 23 6 1",
"  c black",
". c #666666",
"X c #BBBBBB",
"o c #99FFFF",
"O c #FFFFFF",
"+ c None",
/* pixels */
"+++++++++++++++++++++++++++++++++",
"+ +++++++++++++++++++++++++++++++",
"+ +++++++++++++       +++++++++++",
"+ ++++++++++++ XXXXX  +++++++++++",
"+ +++++++++++ XXXXX O +++++  ++++",
"+ ++++             OO ++++   ++++",
"+ +++ XXXXXXXXXXX  OO +++    ++++",
"+ ++ XXXXXXXXXXX O OO ++        +",
"+ +             OO OO +         +",
"+ + ........... OO OO ++        +",
"+ + ........... OO OO +++    ++++",
"+ + ........... O  OO ++++   ++++",
"+ + ...........  . OO +++++  ++++",
"+ +             .. OO +++++++++++",
"+ ++++++ +++ ..... OO +++++++++++",
"+ +++++ ++++ ..... OO +++ +++ +++",
"+ ++++ +++++ ..... O ++++ +++ +++",
"+ +++ ++++++ .....  ++++++ + ++++",
"+ ++ +++++++       ++++++++ +++++",
"+ + ++++++++++++++++++++++ + ++++",
"+  ++++++++++++++++++++++ +++ +++",
"+                     +++ +++ +++",
"+++++++++++++++++++++++++++++++++"
};
