/* XPM */
static char *Transform_Monochrome_Rotate_Y_Left_xpm[] = {
/* columns rows colors chars-per-pixel */
"33 23 6 1",
"  c black",
". c gray40",
"X c #BBBBBB",
"o c #99FFFF",
"O c gray100",
"+ c None",
/* pixels */
"+++++++++++++++++++++++++++++++++",
"+ +++++++++++++      ++++++++++++",
"+ ++++++++++++ XXXX  ++++++++++++",
"+ +++++++++++ XXXX O ++++++++++++",
"+ ++++++++++      OO ++++++  ++++",
"+ ++++++++++ .... OO +++++   ++++",
"+ ++++++++++ .... OO ++++    ++++",
"+ ++++++++++ .... OO +++        +",
"+ ++++++     .... OO ++         +",
"+ +++++ XXXX .... OO +++        +",
"+ ++++ XXXXX .... OO ++++    ++++",
"+ +++ XXXXX  .... OO +++++   ++++",
"+ ++ XXXXX O .... OO ++++++  ++++",
"+ +       OO .... OO ++++++++++++",
"+ + ..... OO .... O +++++++++++++",
"+ + ..... OO ....  ++++++ +++ +++",
"+ + ..... OO      +++++++ +++ +++",
"+ + ..... O ++++++++++++++ + ++++",
"+ + .....  ++++++++++++++++ +++++",
"+ +       +++++++++++++++++ +++++",
"+  ++++++++++++++++++++++++ +++++",
"+                     +++++ +++++",
"+++++++++++++++++++++++++++++++++"
};
