/* XPM */
static char *Transform_Color_Nudge_Z_Right_xpm[] = {
/* columns rows colors chars-per-pixel */
"33 23 10 1",
"  c black",
". c blue",
"X c #006699",
"o c #009900",
"O c #00CCFF",
"+ c red",
"@ c #BBBBBB",
"# c #99FFFF",
"$ c gainsboro",
"% c None",
/* pixels */
"%%%%%%%%%%%%%%%%%%%%%%%%%%%%%%%%%",
"%%%%%%%%%%%.%%%%      %%%%%%%%%%%",
"%%%%%%%%%%%.%%% OOOO  %%%%%%%%%%%",
"%%%%%%%%%%%.%% OOOO # %%%%%%%%%%%",
"%%%%  %%%%%.%      ## %%%%%%%%%%%",
"%%%%   %%%%.% XXXX ## %%%%%%%%%%%",
"%%%%    %%%.% XXXX ## %%%%%%%%%%%",
"%        %%.% XXXX # %%%%%%%%%%%%",
"%         %.% XXXX  %%%%o%%%%%%%%",
"%        %%.%      %%%%o%%%%%%%%%",
"%%%%    %%%.%%%%%%%%%%o%%%%%%%%%%",
"%%%%   %%%%.%%%%$$$$$$%%%%%%%%%%%",
"%%%%  %%%%%.%%%$%%%%$$%%%%%%%%%%%",
"%%%%%%%%%%%.%%$%%%%$%$%%%%%%%%%%%",
"%%%%%%%%%%%.%$$$$$$%%$%%%%%%%%%%%",
"%%%     %%%.%$%%%%$%%$%%%%%%%%%%%",
"%%%%%%% %%%.%$%%%%$%%$%%%%%%%%%%%",
"%%%%%% %%%%.%$%%%%$%$%%%%%%%%%%%%",
"%%%%% %%%%%.%$%%%%$$%%%%%%%%%%%%%",
"%%%% %%%%%%.%$$$$$$%%%%%%%%%%%%%%",
"%%% %%%%%%%.o%%%%%%%%%%%%%%%%%%%%",
"%%%     %%% ++++++++++++++++++++%",
"%%%%%%%%%%%%%%%%%%%%%%%%%%%%%%%%%"
};
