/* XPM */
static char *Transform_Disabled_Flip_Z_xpm[] = {
/* columns rows colors chars-per-pixel */
"68 23 3 1",
"  c #868686",
". c #BBBBBB",
"X c None",
/* pixels */
"XXXXXXXXXXXXXXXXXXXXXXXXXXXXXXXXXXXXXXXXXXXXXXXXXXXXXXXXXXXXXXXXXXXX",
"X XXXXXXXXXXXXXXXXXXXXXXXXXXXXXXXXXXXXXXXXXXXX XXXXXXXXXXXXXXXXXXXXX",
"X XXXXXXX             XXXXXXXXXXXXXXXXXXXXXXXX XXXXXXXXXXXXX       X",
"X XXXXXX XXXXXXXXXXX  XXXXXXXXXXXXXXXXXXXXXXXX XXXXXXXXXXXX XXXXX  X",
"X XXXXX XXXXXXXXXXX X XXXXX  XXXXXXXXXX  XXXXX XXXXXXXXXXX XXXXX X X",
"X XXXX             XX XXXX   XXXXXXXXXX   XXXX XXXXXXXXXX XXXXX XX X",
"X XXXX XXXXXXXXXXX XX XXX    XXXXXXXXXX    XXX XXXXXXXXX XXXXX XXX X",
"X XXXX XXXXXXXXXXX XX XX        XXXX        XX XXXXXXXX XXXXX XXXX X",
"X XXXX XXXXXXXXXXX X  X         XXXX         X XXXXXXX       XXXXX X",
"X XXXX XXXXXXXXXXX  X XX        XXXX        XX XXXXXX  XXXXX XXXX  X",
"X XXXX             XX XXX    XXXXXXXXXX    XXX XXXXX X XXXXX XXX X X",
"X XXXXXXXXX XXXXX XXX XXXX   XXXXXXXXXX   XXXX XXXX    XXXXX XX XX X",
"X XXXXXXXX XXXXX XXXX XXXXX  XXXXXXXXXX  XXXXX XXXX XX XXXXX X  XX X",
"X XXXXXXX       XXXXX XXXXXXXXXXXXXXXXXXXXXXXX XXXX XX XXXXX  X XX X",
"X XXXXXX  XXXXX XXXX XXXXXXXXXXXXXXXXXXXXXXXXX XXXX XX       XX X XX",
"X XXXXX X XXXXX XXX XXXXX     XXXXXXXX     XXX XXXX XXXXXXXXXXX  XXX",
"X XXXX XX XXXXX XX XXXXXXXXXX XXXXXXXXXXXX XXX XXXX             XXXX",
"X XXX XXX XXXXX X XXXXXXXXXX XXXXXXXXXXXX XXXX XXX XXXXXXXXXXXXXXXXX",
"X XX XXXX XXXXX  XXXXXXXXXX XXXXXXXXXXXX XXXXX XX XXXXXXXXXXXXXXXXXX",
"X X XXXXX       XXXXXXXXXX XXXXXXXXXXXX XXXXXX X XXXXXXXXXXXXXXXXXXX",
"X  XXXXXXXXXXXXXXXXXXXXXX XXXXXXXXXXXX XXXXXXX  XXXXXXXXXXXXXXXXXXXX",
"X                     XXX     XXXXXXXX     XXX                     X",
"XXXXXXXXXXXXXXXXXXXXXXXXXXXXXXXXXXXXXXXXXXXXXXXXXXXXXXXXXXXXXXXXXXXX"
};
