/* XPM */
static const char *Transform_Color_Nudge_Y_Left_xpm[] = {
/* columns rows colors chars-per-pixel */
"33 23 10 1",
"  c #010101",
". c #336633",
"X c #0000FF",
"o c #009900",
"O c #33CC33",
"+ c #FF0000",
"@ c #BBBBBB",
"# c #99FF99",
"$ c #DCDCDC",
"% c None",
/* pixels */
"%%%%%%%%%%%%%%%%%%%%%%%%%%%%%%%%%",
"%X%%%%%%%%%%%%%%%%%%%%%%%%%%%%%%%",
"%X%%%%%%%%%%%%%%%%%%%%%%%%%%%%%%%",
"%X%%%%%%%%%%%%%%%%%%%%%%%%%%%%%%%",
"%X%%%%%%%%%%%%%%%%%%%%%%%%%  %%%%",
"%X%%%%%%%%%%$$$$$$%%%%%%%%   %%%%",
"%X%%%%%%%%%$%%%%$$%%%%%%%    %%%%",
"%X%%%%%%%%$%%%%$%$%%%%%%        %",
"%X%%%%%%%$$$$$$%%$%%%%%         %",
"%X%%%%%%%$%%%%$%%$%%%%%%        %",
"%X%%%%%%%$%%%%$%%$%%%%%%%    %%%%",
"%X%%%%      %%$%$%%%%%%%%%   %%%%",
"%X%%% OOOO  %%$$%%%%%%%%%%%  %%%%",
"%X%% OOOO # $$$%%%%%%%%%%%%%%%%%%",
"%X%      ## %%%%%%%%%%%%%%%%%%%%%",
"%X% .... ## %%%%%%%%%%%%% %%% %%%",
"%X% .... ## %%%%%%%%%%%%% %%% %%%",
"%X% .... # %%%%%%%%%%%%%%% % %%%%",
"%X% ....  %%%%%%%%%%%%%%%%% %%%%%",
"%X%      %%%%%%%%%%%%%%%%%% %%%%%",
"%Xo%%%%%%%%%%%%%%%%%%%%%%%% %%%%%",
"% ++++++++++++++++++++%%%%% %%%%%",
"%%%%%%%%%%%%%%%%%%%%%%%%%%%%%%%%%"
};
