/* XPM */
static const char *Transform_Color_Rotate_Y_Left_xpm[] = {
/* columns rows colors chars-per-pixel */
"33 23 12 1",
"  c black",
". c #336633",
"X c #0000FF",
"o c #009900",
"O c #33CC33",
"+ c #FF0000",
"@ c #CCCC33",
"# c #FFFF66",
"$ c #BBBBBB",
"% c #99FF99",
"& c #FFFFCC",
"* c None",
/* pixels */
"*********************************",
"*X*************      ************",
"*X************ OOOO  ************",
"*X*********** OOOO % ************",
"*X**********      %% ******  ****",
"*X********** .... %% *****   ****",
"*X********** .... %% ****    ****",
"*X********** .... %% ***        *",
"*X******     .... %% **         *",
"*X***** #### .... %% ***        *",
"*X**** ##### .... %% ****    ****",
"*X*** #####  .... %% *****   ****",
"*X** ##### & .... %% ******  ****",
"*X*       && .... %% ************",
"*X* @@@@@ && .... % *************",
"*X* @@@@@ && ....  ****** *** ***",
"*X* @@@@@ &&      ******* *** ***",
"*X* @@@@@ & ************** * ****",
"*X* @@@@@  **************** *****",
"*X*       ***************** *****",
"*Xo************************ *****",
"* ++++++++++++++++++++***** *****",
"*********************************"
};
