/* XPM */
static const char *Transform_Disabled_Rotate_X_Left_xpm[] = {
/* columns rows colors chars-per-pixel */
"33 23 3 1",
"  c #868686",
". c #BBBBBB",
"X c None",
/* pixels */
"XXXXXXXXXXXXXXXXXXXXXXXXXXXXXXXXX",
"X XXXXXXXXXXXXXXXXXXXXXXXXXXXXXXX",
"X XXXXXXXXXXXXX       XXXXXXXXXXX",
"X XXXXXXXXXXXX XXXXX  XXXXXXXXXXX",
"X XXXXXXXXXXX XXXXX X XXXXX  XXXX",
"X XXXX             XX XXXX   XXXX",
"X XXX XXXXXXXXXXX  XX XXX    XXXX",
"X XX XXXXXXXXXXX X XX XX        X",
"X X             XX XX X         X",
"X X XXXXXXXXXXX XX XX XX        X",
"X X XXXXXXXXXXX XX XX XXX    XXXX",
"X X XXXXXXXXXXX X  XX XXXX   XXXX",
"X X XXXXXXXXXXX  X XX XXXXX  XXXX",
"X X             XX XX XXXXXXXXXXX",
"X XXXXXX XXX XXXXX XX XXXXXXXXXXX",
"X XXXXX XXXX XXXXX XX XXX XXX XXX",
"X XXXX XXXXX XXXXX X XXXX XXX XXX",
"X XXX XXXXXX XXXXX  XXXXXX X XXXX",
"X XX XXXXXXX       XXXXXXXX XXXXX",
"X X XXXXXXXXXXXXXXXXXXXXXX X XXXX",
"X  XXXXXXXXXXXXXXXXXXXXXX XXX XXX",
"X                     XXX XXX XXX",
"XXXXXXXXXXXXXXXXXXXXXXXXXXXXXXXXX"
};
