/* XPM */
static char *Transform_Color_Nudge_X_Left_xpm[] = {
/* columns rows colors chars-per-pixel */
"33 23 10 1",
"  c black",
". c blue",
"X c #009900",
"o c #990033",
"O c red",
"+ c #FF0066",
"@ c #FF6699",
"# c #BBBBBB",
"$ c gainsboro",
"% c None",
/* pixels */
"%%%%%%%%%%%%%%%%%%%%%%%%%%%%%%%%%",
"%.%%%%%%%%%%%%%%%%%%%%%%%%%%%%%%%",
"%.%%%%%%%%%%%%%%%%%%%%%%%%%%%%%%%",
"%.%%%%%%%%%%%%%%%%%%%%%%%%%%%%%%%",
"%.%%%%%%%%%%%%%%%%%%%%%%%%%  %%%%",
"%.%%%%%%%%%%%%%%%%%%%%%%%%   %%%%",
"%.%%%%%%%%%%%%%%%%%%%%%%%    %%%%",
"%.%%%%%%%%%%%%%%%%%%%%%%        %",
"%.%%%%%%%%%%%%X%%%%%%%%         %",
"%.%%%%%%%%%%%X%%%%%%%%%%        %",
"%.%%%%%%%%%%X%%%%%%%%%%%%    %%%%",
"%.%%%%      %%%%$$$$$$%%%%   %%%%",
"%.%%% ++++  %%%$%%%%$$%%%%%  %%%%",
"%.%% ++++ @ %%$%%%%$%$%%%%%%%%%%%",
"%.%      @@ %$$$$$$%%$%%%%%%%%%%%",
"%.% oooo @@ %$%%%%$%%$%%% %%% %%%",
"%.% oooo @@ %$%%%%$%%$%%% %%% %%%",
"%.% oooo @ %%$%%%%$%$%%%%% % %%%%",
"%.% oooo  %%%$%%%%$$%%%%%%% %%%%%",
"%.%      %%%%$$$$$$%%%%%%% % %%%%",
"%.X%%%%%%%%%%%%%%%%%%%%%% %%% %%%",
"% OOOOOOOOOOOOOOOOOOOO%%% %%% %%%",
"%%%%%%%%%%%%%%%%%%%%%%%%%%%%%%%%%"
};
