/* XPM */
static const char *Transform_Monochrome_Flip_X_xpm[] = {
/* columns rows colors chars-per-pixel */
"68 23 6 1",
"  c black",
". c #666666",
"X c #BBBBBB",
"o c #99FFFF",
"O c #F1F1F1",
"+ c None",
/* pixels */
"++++++++++++++++++++++++++++++++++++++++++++++++++++++++++++++++++++",
"+ ++++++++++++++++++++++++++++++++++++++++++++ +++++++++++++++++++++",
"+ +++++++             ++++++++++++++++++++++++ +++++++             +",
"+ ++++++ XXXXXXXXXXX  ++++++++++++++++++++++++ ++++++ XXXXXXXXXXX  +",
"+ +++++ XXXXXXXXXXX O +++++  ++++++++++  +++++ +++++ XXXXXXXXXXX O +",
"+ ++++             OO ++++   ++++++++++   ++++ ++++             OO +",
"+ ++++ ........... OO +++    ++++++++++    +++ ++++ ........... OO +",
"+ ++++ ........... OO ++        ++++        ++ ++++ ........... OO +",
"+ ++++ ........... O  +         ++++         + ++++ ........... O ++",
"+ ++++ ...........  O ++        ++++        ++ ++++ ...........  +++",
"+ ++++             OO +++    ++++++++++    +++ ++++             ++++",
"+ +++++++++ XXXXX OOO ++++   ++++++++++   ++++ +++ XXXXX OOOO ++++++",
"+ ++++++++ XXXXX OOOO +++++  ++++++++++  +++++ ++ XXXXX OOOOO ++++++",
"+ +++++++       OOOOO ++++++++++++++++++++++++ +       OOOOO +++++++",
"+ ++++++  ..... OOOO +++++++++++++++++++++++++ + ..... OOOO ++++++++",
"+ +++++ + ..... OOO +++++ +++ ++++++++ +++ +++ + ..... OOO +++++++++",
"+ ++++ ++ ..... OO ++++++ +++ ++++++++ +++ +++ + ..... OO ++++++++++",
"+ +++ +++ ..... O ++++++++ + ++++++++++ + ++++ + ..... O +++++++++++",
"+ ++ ++++ .....  ++++++++++ ++++++++++++ +++++ + .....  ++++++++++++",
"+ + +++++       ++++++++++ + ++++++++++ + ++++ +       +++++++++++++",
"+  ++++++++++++++++++++++ +++ ++++++++ +++ +++  ++++++++++++++++++++",
"+                     +++ +++ ++++++++ +++ +++                     +",
"++++++++++++++++++++++++++++++++++++++++++++++++++++++++++++++++++++"
};
