/* XPM */
static char *Transform_Color_Flip_Y_xpm[] = {
/* columns rows colors chars-per-pixel */
"68 23 12 1",
"  c black",
". c #336633",
"X c blue",
"o c #009900",
"O c #33CC33",
"+ c red",
"@ c #CCCC33",
"# c #FFFF66",
"$ c #BBBBBB",
"% c #99FF99",
"& c #FFFFCC",
"* c None",
/* pixels */
"********************************************************************",
"*X********************************************X*********************",
"*X*******             ************************X*********************",
"*X****** OOOOOOOOOOO  ************************X*********************",
"*X***** OOOOOOOOOOO % *****  **********  *****X*********************",
"*X****             %% ****   **********   ****X****             ****",
"*X**** ........... %% ***    **********    ***X*** OOOOOOOOOOO  ****",
"*X**** ........... %% **        ****        **X** OOOOOOOOOOO %    *",
"*X**** ........... %  *         ****         *X*             %% #  *",
"*X**** ...........  & **        ****        **X* ........... %%  & *",
"*X****             && ***    **********    ***X* ........... %% && *",
"*X********* ##### &&& ****   **********   ****X* ........... % &&& *",
"*X******** ##### &&&& *****  **********  *****X* ...........  &&&& *",
"*X*******       &&&&& ************************X*             &&&&& *",
"*X******o @@@@@ &&&& *************************X******o @@@@@ &&&& **",
"*X*****o* @@@@@ &&& ***** *** ******** *** ***X*****o* @@@@@ &&& ***",
"*X****o** @@@@@ && ****** *** ******** *** ***X****o** @@@@@ && ****",
"*X***o*** @@@@@ & ******** * ********** * ****X***o*** @@@@@ & *****",
"*X**o**** @@@@@  ********** ************ *****X**o**** @@@@@  ******",
"*X*o*****       *********** ************ *****X*o*****       *******",
"*Xo************************ ************ *****Xo********************",
"* ++++++++++++++++++++***** ************ ***** ++++++++++++++++++++*",
"********************************************************************"
};
