/* XPM */
static const char *Transform_Color_Nudge_Z_Left_xpm[] = {
/* columns rows colors chars-per-pixel */
"33 23 10 1",
"  c black",
". c #0000FF",
"X c #006699",
"o c #009900",
"O c #00CCFF",
"+ c #FF0000",
"@ c #BBBBBB",
"# c #99FFFF",
"$ c #DCDCDC",
"% c None",
/* pixels */
"%%%%%%%%%%%%%%%%%%%%%%%%%%%%%%%%%",
"%.%%%%$$$$$$%%%%%%%%%%%%%%%%%%%%%",
"%.%%%$%%%%$$%%%%%%%%%%%%%%%%%%%%%",
"%.%%$%%%%$%$%%%%%%%%%%%%%%%%%%%%%",
"%.%$$$$$$%%$%%%%%%%%%%%%%%%  %%%%",
"%.%$%%%%$%%$%%%%%%%%%%%%%%   %%%%",
"%.%$%%%%$%%$%%%%%%%%%%%%%    %%%%",
"%.%$%%%%$%$%%%%%%%%%%%%%        %",
"%.%$%%%%$$%%%%o%%%%%%%%         %",
"%.%$$$$$$%%%%o%%%%%%%%%%        %",
"%.%%%%%%%%%%o%%%%%%%%%%%%    %%%%",
"%.%%%%      %%%%%%%%%%%%%%   %%%%",
"%.%%% OOOO  %%%%%%%%%%%%%%%  %%%%",
"%.%% OOOO # %%%%%%%%%%%%%%%%%%%%%",
"%.%      ## %%%%%%%%%%%%%%%%%%%%%",
"%.% XXXX ## %%%%%%%%%%%%%     %%%",
"%.% XXXX ## %%%%%%%%%%%%%%%%% %%%",
"%.% XXXX # %%%%%%%%%%%%%%%%% %%%%",
"%.% XXXX  %%%%%%%%%%%%%%%%% %%%%%",
"%.%      %%%%%%%%%%%%%%%%% %%%%%%",
"%.o%%%%%%%%%%%%%%%%%%%%%% %%%%%%%",
"% ++++++++++++++++++++%%%     %%%",
"%%%%%%%%%%%%%%%%%%%%%%%%%%%%%%%%%"
};
