/* XPM */
static const char *Transform_Color_Nudge_X_Right_xpm[] = {
/* columns rows colors chars-per-pixel */
"33 23 10 1",
"  c black",
". c #0000FF",
"X c #009900",
"o c #990033",
"O c #FF0000",
"+ c #FF0066",
"@ c #FF6699",
"# c #BBBBBB",
"$ c #DCDCDC",
"% c None",
/* pixels */
"%%%%%%%%%%%%%%%%%%%%%%%%%%%%%%%%%",
"%%%%%%%%%%%.%%%%%%%%%%%%%%%%%%%%%",
"%%%%%%%%%%%.%%%%%%%%%%%%%%%%%%%%%",
"%%%%%%%%%%%.%%%%%%%%%%%%%%%%%%%%%",
"%%%%  %%%%%.%%%%%%%%%%%%%%%%%%%%%",
"%%%%   %%%%.%%%%%%%%%%%%%%%%%%%%%",
"%%%%    %%%.%%%%%%%%%%%%%%%%%%%%%",
"%        %%.%%%%%%%%%%%%%%%%%%%%%",
"%         %.%%%%%%%%%%%%X%%%%%%%%",
"%        %%.%%%%%%%%%%%X%%%%%%%%%",
"%%%%    %%%.%%%%%%%%%%X%%%%%%%%%%",
"%%%%   %%%%.%%%%$$$$$$%%%%      %",
"%%%%  %%%%%.%%%$%%%%$$%%% ++++  %",
"%%%%%%%%%%%.%%$%%%%$%$%% ++++ @ %",
"%%%%%%%%%%%.%$$$$$$%%$%      @@ %",
"%%% %%% %%%.%$%%%%$%%$% oooo @@ %",
"%%% %%% %%%.%$%%%%$%%$% oooo @@ %",
"%%%% % %%%%.%$%%%%$%$%% oooo @ %%",
"%%%%% %%%%%.%$%%%%$$%%% oooo  %%%",
"%%%% % %%%%.%$$$$$$%%%%      %%%%",
"%%% %%% %%%.X%%%%%%%%%%%%%%%%%%%%",
"%%% %%% %%% OOOOOOOOOOOOOOOOOOOO%",
"%%%%%%%%%%%%%%%%%%%%%%%%%%%%%%%%%"
};
