/* XPM */
static const char *Transform_Monochrome_Flip_Z_xpm[] = {
/* columns rows colors chars-per-pixel */
"68 23 6 1",
"  c black",
". c #666666",
"X c #BBBBBB",
"o c #99FFFF",
"O c #F1F1F1",
"+ c None",
/* pixels */
"++++++++++++++++++++++++++++++++++++++++++++++++++++++++++++++++++++",
"+ ++++++++++++++++++++++++++++++++++++++++++++ +++++++++++++++++++++",
"+ +++++++             ++++++++++++++++++++++++ +++++++++++++       +",
"+ ++++++ XXXXXXXXXXX  ++++++++++++++++++++++++ ++++++++++++ XXXXX  +",
"+ +++++ XXXXXXXXXXX O +++++  ++++++++++  +++++ +++++++++++ XXXXX O +",
"+ ++++             OO ++++   ++++++++++   ++++ ++++++++++ XXXXX OO +",
"+ ++++ ........... OO +++    ++++++++++    +++ +++++++++ XXXXX OOO +",
"+ ++++ ........... OO ++        ++++        ++ ++++++++ XXXXX OOOO +",
"+ ++++ ........... O  +         ++++         + +++++++       OOOOO +",
"+ ++++ ...........  O ++        ++++        ++ ++++++  ..... OOOO  +",
"+ ++++             OO +++    ++++++++++    +++ +++++ X ..... OOO O +",
"+ +++++++++ XXXXX OOO ++++   ++++++++++   ++++ ++++    ..... OO OO +",
"+ ++++++++ XXXXX OOOO +++++  ++++++++++  +++++ ++++ .. ..... O  OO +",
"+ +++++++       OOOOO ++++++++++++++++++++++++ ++++ .. .....  . OO +",
"+ ++++++  ..... OOOO +++++++++++++++++++++++++ ++++ ..       .. O ++",
"+ +++++ + ..... OOO +++++     ++++++++     +++ ++++ ...........  +++",
"+ ++++ ++ ..... OO ++++++++++ ++++++++++++ +++ ++++             ++++",
"+ +++ +++ ..... O ++++++++++ ++++++++++++ ++++ +++ +++++++++++++++++",
"+ ++ ++++ .....  ++++++++++ ++++++++++++ +++++ ++ ++++++++++++++++++",
"+ + +++++       ++++++++++ ++++++++++++ ++++++ + +++++++++++++++++++",
"+  ++++++++++++++++++++++ ++++++++++++ +++++++  ++++++++++++++++++++",
"+                     +++     ++++++++     +++                     +",
"++++++++++++++++++++++++++++++++++++++++++++++++++++++++++++++++++++"
};
