/* XPM */
static char *Transform_Color_Flip_Z_xpm[] = {
/* columns rows colors chars-per-pixel */
"68 23 12 1",
"  c black",
". c blue",
"X c #006699",
"o c #009900",
"O c #00CCFF",
"+ c red",
"@ c #CCCC33",
"# c #FFFF66",
"$ c #BBBBBB",
"% c #99FFFF",
"& c #FFFFCC",
"* c None",
/* pixels */
"********************************************************************",
"*.********************************************.*********************",
"*.*******             ************************.*************       *",
"*.****** OOOOOOOOOOO  ************************.************ #####  *",
"*.***** OOOOOOOOOOO % *****  **********  *****.*********** ##### & *",
"*.****             %% ****   **********   ****.********** ##### && *",
"*.**** XXXXXXXXXXX %% ***    **********    ***.********* ##### &&& *",
"*.**** XXXXXXXXXXX %% **        ****        **.******** ##### &&&& *",
"*.**** XXXXXXXXXXX %  *         ****         *.*******       &&&&& *",
"*.**** XXXXXXXXXXX  & **        ****        **.******  @@@@@ &&&&  *",
"*.****             && ***    **********    ***.***** O @@@@@ &&& % *",
"*.********* ##### &&& ****   **********   ****.****    @@@@@ && %% *",
"*.******** ##### &&&& *****  **********  *****.**** XX @@@@@ &  %% *",
"*.*******       &&&&& ************************.**** XX @@@@@  X %% *",
"*.******o @@@@@ &&&& *************************.**** XX       XX % **",
"*.*****o* @@@@@ &&& *****     ********     ***.**** XXXXXXXXXXX  ***",
"*.****o** @@@@@ && ********** ************ ***.****             ****",
"*.***o*** @@@@@ & ********** ************ ****.***o*****************",
"*.**o**** @@@@@  ********** ************ *****.**o******************",
"*.*o*****       ********** ************ ******.*o*******************",
"*.o********************** ************ *******.o********************",
"* ++++++++++++++++++++***     ********     *** ++++++++++++++++++++*",
"********************************************************************"
};
