/* XPM */
static const char *Transform_Color_Rotate_Z_Left_xpm[] = {
/* columns rows colors chars-per-pixel */
"33 23 12 1",
"  c black",
". c #0000FF",
"X c #006699",
"o c #009900",
"O c #00CCFF",
"+ c #FF0000",
"@ c #CCCC33",
"# c #FFFF66",
"$ c #BBBBBB",
"% c #99FFFF",
"& c #FFFFCC",
"* c None",
/* pixels */
"*********************************",
"*.*******************************",
"*.*******       *****************",
"*.****** OOOOO  *****************",
"*.***** OOOOO % ***********  ****",
"*.**** OOOOO %% **********   ****",
"*.*** OOOOO %%% *********    ****",
"*.** OOOOO %%%% ********        *",
"*.*       %%%%%       *         *",
"*.* XXXXX %%%% #####  **        *",
"*.* XXXXX %%% ##### & ***    ****",
"*.* XXXXX %%       && ****   ****",
"*.* XXXXX % @@@@@@ && *****  ****",
"*.* XXXXX  @@@@@@@ && ***********",
"*.*       @@@@@@@@ & ************",
"*.**** @@@@@@@@@@@  *****     ***",
"*.****             ********** ***",
"*.***o********************** ****",
"*.**o********************** *****",
"*.*o********************** ******",
"*.o********************** *******",
"* ++++++++++++++++++++***     ***",
"*********************************"
};
