/* XPM */
static char *Transform_Monochrome_Nudge_X_Right_xpm[] = {
/* columns rows colors chars-per-pixel */
"33 23 7 1",
"  c black",
". c #666666",
"X c #FF6600",
"o c #BBBBBB",
"O c gainsboro",
"+ c #F1F1F1",
"@ c None",
/* pixels */
"@@@@@@@@@@@@@@@@@@@@@@@@@@@@@@@@@",
"@@@@@@@@@@@ @@@@@@@@@@@@@@@@@@@@@",
"@@@@@@@@@@@ @@@@@@@@@@@@@@@@@@@@@",
"@@@@@@@@@@@ @@@@@@@@@@@@@@@@@@@@@",
"@@@@  @@@@@ @@@@@@@@@@@@@@@@@@@@@",
"@@@@   @@@@ @@@@@@@@@@@@@@@@@@@@@",
"@@@@    @@@ @@@@@@@@@@@@@@@@@@@@@",
"@        @@ @@@@@@@@@@@@@@@@@@@@@",
"@         @ @@@@@@@@@@@@ @@@@@@@@",
"@        @@ @@@@@@@@@@@ @@@@@@@@@",
"@@@@    @@@ @@@@@@@@@@ @@@@@@@@@@",
"@@@@   @@@@ @@@@OOOOOO@@@@      @",
"@@@@  @@@@@ @@@O@@@@OO@@@ oooo  @",
"@@@@@@@@@@@ @@O@@@@O@O@@ oooo + @",
"@@@@@@@@@@@ @OOOOOO@@O@      ++ @",
"@@@ @@@ @@@ @O@@@@O@@O@ .... ++ @",
"@@@ @@@ @@@ @O@@@@O@@O@ .... ++ @",
"@@@@ @ @@@@ @O@@@@O@O@@ .... + @@",
"@@@@@ @@@@@ @O@@@@OO@@@ ....  @@@",
"@@@@ @ @@@@ @OOOOOO@@@@      @@@@",
"@@@ @@@ @@@  @@@@@@@@@@@@@@@@@@@@",
"@@@ @@@ @@@                     @",
"@@@@@@@@@@@@@@@@@@@@@@@@@@@@@@@@@"
};
