/* XPM */
static const char *Transform_Disabled_Flip_Y_xpm[] = {
/* columns rows colors chars-per-pixel */
"68 23 3 1",
"  c #868686",
". c #BBBBBB",
"X c None",
/* pixels */
"XXXXXXXXXXXXXXXXXXXXXXXXXXXXXXXXXXXXXXXXXXXXXXXXXXXXXXXXXXXXXXXXXXXX",
"X XXXXXXXXXXXXXXXXXXXXXXXXXXXXXXXXXXXXXXXXXXXX XXXXXXXXXXXXXXXXXXXXX",
"X XXXXXXX             XXXXXXXXXXXXXXXXXXXXXXXX XXXXXXXXXXXXXXXXXXXXX",
"X XXXXXX XXXXXXXXXXX  XXXXXXXXXXXXXXXXXXXXXXXX XXXXXXXXXXXXXXXXXXXXX",
"X XXXXX XXXXXXXXXXX X XXXXX  XXXXXXXXXX  XXXXX XXXXXXXXXXXXXXXXXXXXX",
"X XXXX             XX XXXX   XXXXXXXXXX   XXXX XXXX             XXXX",
"X XXXX XXXXXXXXXXX XX XXX    XXXXXXXXXX    XXX XXX XXXXXXXXXXX  XXXX",
"X XXXX XXXXXXXXXXX XX XX        XXXX        XX XX XXXXXXXXXXX X    X",
"X XXXX XXXXXXXXXXX X  X         XXXX         X X             XX X  X",
"X XXXX XXXXXXXXXXX  X XX        XXXX        XX X XXXXXXXXXXX XX  X X",
"X XXXX             XX XXX    XXXXXXXXXX    XXX X XXXXXXXXXXX XX XX X",
"X XXXXXXXXX XXXXX XXX XXXX   XXXXXXXXXX   XXXX X XXXXXXXXXXX X XXX X",
"X XXXXXXXX XXXXX XXXX XXXXX  XXXXXXXXXX  XXXXX X XXXXXXXXXXX  XXXX X",
"X XXXXXXX       XXXXX XXXXXXXXXXXXXXXXXXXXXXXX X             XXXXX X",
"X XXXXXX  XXXXX XXXX XXXXXXXXXXXXXXXXXXXXXXXXX XXXXXX  XXXXX XXXX XX",
"X XXXXX X XXXXX XXX XXXXX XXX XXXXXXXX XXX XXX XXXXX X XXXXX XXX XXX",
"X XXXX XX XXXXX XX XXXXXX XXX XXXXXXXX XXX XXX XXXX XX XXXXX XX XXXX",
"X XXX XXX XXXXX X XXXXXXXX X XXXXXXXXXX X XXXX XXX XXX XXXXX X XXXXX",
"X XX XXXX XXXXX  XXXXXXXXXX XXXXXXXXXXXX XXXXX XX XXXX XXXXX  XXXXXX",
"X X XXXXX       XXXXXXXXXXX XXXXXXXXXXXX XXXXX X XXXXX       XXXXXXX",
"X  XXXXXXXXXXXXXXXXXXXXXXXX XXXXXXXXXXXX XXXXX  XXXXXXXXXXXXXXXXXXXX",
"X                     XXXXX XXXXXXXXXXXX XXXXX                     X",
"XXXXXXXXXXXXXXXXXXXXXXXXXXXXXXXXXXXXXXXXXXXXXXXXXXXXXXXXXXXXXXXXXXXX"
};
