/* XPM */
static char *Transform_Disabled_Rotate_Y_Left_xpm[] = {
/* columns rows colors chars-per-pixel */
"33 23 3 1",
"  c #868686",
". c #BBBBBB",
"X c None",
/* pixels */
"XXXXXXXXXXXXXXXXXXXXXXXXXXXXXXXXX",
"X XXXXXXXXXXXXX      XXXXXXXXXXXX",
"X XXXXXXXXXXXX XXXX  XXXXXXXXXXXX",
"X XXXXXXXXXXX XXXX X XXXXXXXXXXXX",
"X XXXXXXXXXX      XX XXXXXX  XXXX",
"X XXXXXXXXXX XXXX XX XXXXX   XXXX",
"X XXXXXXXXXX XXXX XX XXXX    XXXX",
"X XXXXXXXXXX XXXX XX XXX        X",
"X XXXXXX     XXXX XX XX         X",
"X XXXXX XXXX XXXX XX XXX        X",
"X XXXX XXXXX XXXX XX XXXX    XXXX",
"X XXX XXXXX  XXXX XX XXXXX   XXXX",
"X XX XXXXX X XXXX XX XXXXXX  XXXX",
"X X       XX XXXX XX XXXXXXXXXXXX",
"X X XXXXX XX XXXX X XXXXXXXXXXXXX",
"X X XXXXX XX XXXX  XXXXXX XXX XXX",
"X X XXXXX XX      XXXXXXX XXX XXX",
"X X XXXXX X XXXXXXXXXXXXXX X XXXX",
"X X XXXXX  XXXXXXXXXXXXXXXX XXXXX",
"X X       XXXXXXXXXXXXXXXXX XXXXX",
"X  XXXXXXXXXXXXXXXXXXXXXXXX XXXXX",
"X                     XXXXX XXXXX",
"XXXXXXXXXXXXXXXXXXXXXXXXXXXXXXXXX"
};
