/* XPM */
static const char *Transform_Disabled_Flip_X_xpm[] = {
/* columns rows colors chars-per-pixel */
"68 23 3 1",
"  c #868686",
". c #BBBBBB",
"X c None",
/* pixels */
"XXXXXXXXXXXXXXXXXXXXXXXXXXXXXXXXXXXXXXXXXXXXXXXXXXXXXXXXXXXXXXXXXXXX",
"X XXXXXXXXXXXXXXXXXXXXXXXXXXXXXXXXXXXXXXXXXXXX XXXXXXXXXXXXXXXXXXXXX",
"X XXXXXXX             XXXXXXXXXXXXXXXXXXXXXXXX XXXXXXX             X",
"X XXXXXX XXXXXXXXXXX  XXXXXXXXXXXXXXXXXXXXXXXX XXXXXX XXXXXXXXXXX  X",
"X XXXXX XXXXXXXXXXX X XXXXX  XXXXXXXXXX  XXXXX XXXXX XXXXXXXXXXX X X",
"X XXXX             XX XXXX   XXXXXXXXXX   XXXX XXXX             XX X",
"X XXXX XXXXXXXXXXX XX XXX    XXXXXXXXXX    XXX XXXX XXXXXXXXXXX XX X",
"X XXXX XXXXXXXXXXX XX XX        XXXX        XX XXXX XXXXXXXXXXX XX X",
"X XXXX XXXXXXXXXXX X  X         XXXX         X XXXX XXXXXXXXXXX X XX",
"X XXXX XXXXXXXXXXX  X XX        XXXX        XX XXXX XXXXXXXXXXX  XXX",
"X XXXX             XX XXX    XXXXXXXXXX    XXX XXXX             XXXX",
"X XXXXXXXXX XXXXX XXX XXXX   XXXXXXXXXX   XXXX XXX XXXXX XXXX XXXXXX",
"X XXXXXXXX XXXXX XXXX XXXXX  XXXXXXXXXX  XXXXX XX XXXXX XXXXX XXXXXX",
"X XXXXXXX       XXXXX XXXXXXXXXXXXXXXXXXXXXXXX X       XXXXX XXXXXXX",
"X XXXXXX  XXXXX XXXX XXXXXXXXXXXXXXXXXXXXXXXXX X XXXXX XXXX XXXXXXXX",
"X XXXXX X XXXXX XXX XXXXX XXX XXXXXXXX XXX XXX X XXXXX XXX XXXXXXXXX",
"X XXXX XX XXXXX XX XXXXXX XXX XXXXXXXX XXX XXX X XXXXX XX XXXXXXXXXX",
"X XXX XXX XXXXX X XXXXXXXX X XXXXXXXXXX X XXXX X XXXXX X XXXXXXXXXXX",
"X XX XXXX XXXXX  XXXXXXXXXX XXXXXXXXXXXX XXXXX X XXXXX  XXXXXXXXXXXX",
"X X XXXXX       XXXXXXXXXX X XXXXXXXXXX X XXXX X       XXXXXXXXXXXXX",
"X  XXXXXXXXXXXXXXXXXXXXXX XXX XXXXXXXX XXX XXX  XXXXXXXXXXXXXXXXXXXX",
"X                     XXX XXX XXXXXXXX XXX XXX                     X",
"XXXXXXXXXXXXXXXXXXXXXXXXXXXXXXXXXXXXXXXXXXXXXXXXXXXXXXXXXXXXXXXXXXXX"
};
