/* XPM */
static char *Transform_Disabled_Rotate_X_Right_xpm[] = {
/* columns rows colors chars-per-pixel */
"33 23 3 1",
"  c #868686",
". c #BBBBBB",
"X c None",
/* pixels */
"XXXXXXXXXXXXXXXXXXXXXXXXXXXXXXXXX",
"XXXXXXXXXXX XXXXXXXXXXXXXXXXXXXXX",
"XXXXXXXXXXX XXXXXXX             X",
"XXXXXXXXXXX XXXXXX XXXXXXXXXXX  X",
"XXXX  XXXXX XXXXX XXXXXXXXXXX X X",
"XXXX   XXXX XXXX             XX X",
"XXXX    XXX XXXX XXXXXXXXXXX XX X",
"X        XX XXXX XXXXXXXXXXX XX X",
"X         X XXXX XXXXXXXXXXX X  X",
"X        XX XXXX XXXXXXXXXXX  X X",
"XXXX    XXX XXXX             XX X",
"XXXX   XXXX XXXXXXXXX XXXXX XXX X",
"XXXX  XXXXX XXXXXXXX XXXXX XXXX X",
"XXXXXXXXXXX XXXXXXX       XXXXX X",
"XXXXXXXXXXX XXXXXX  XXXXX XXXX XX",
"XXX XXX XXX XXXXX X XXXXX XXX XXX",
"XXX XXX XXX XXXX XX XXXXX XX XXXX",
"XXXX X XXXX XXX XXX XXXXX X XXXXX",
"XXXXX XXXXX XX XXXX XXXXX  XXXXXX",
"XXXX X XXXX X XXXXX       XXXXXXX",
"XXX XXX XXX  XXXXXXXXXXXXXXXXXXXX",
"XXX XXX XXX                     X",
"XXXXXXXXXXXXXXXXXXXXXXXXXXXXXXXXX"
};
