/* XPM */
static const char *Transform_Monochrome_Rotate_Z_Left_xpm[] = {
/* columns rows colors chars-per-pixel */
"33 23 6 1",
"  c black",
". c #666666",
"X c #BBBBBB",
"o c #99FFFF",
"O c #FFFFFF",
"+ c None",
/* pixels */
"+++++++++++++++++++++++++++++++++",
"+ +++++++++++++++++++++++++++++++",
"+ +++++++       +++++++++++++++++",
"+ ++++++ XXXXX  +++++++++++++++++",
"+ +++++ XXXXX O +++++++++++  ++++",
"+ ++++ XXXXX OO ++++++++++   ++++",
"+ +++ XXXXX OOO +++++++++    ++++",
"+ ++ XXXXX OOOO ++++++++        +",
"+ +       OOOOO       +         +",
"+ + ..... OOOO XXXXX  ++        +",
"+ + ..... OOO XXXXX O +++    ++++",
"+ + ..... OO       OO ++++   ++++",
"+ + ..... O ...... OO +++++  ++++",
"+ + .....  ....... OO +++++++++++",
"+ +       ........ O ++++++++++++",
"+ ++++ ...........  +++++     +++",
"+ ++++             ++++++++++ +++",
"+ +++ ++++++++++++++++++++++ ++++",
"+ ++ ++++++++++++++++++++++ +++++",
"+ + ++++++++++++++++++++++ ++++++",
"+  ++++++++++++++++++++++ +++++++",
"+                     +++     +++",
"+++++++++++++++++++++++++++++++++"
};
