/* XPM */
static const char *Transform_Monochrome_Nudge_Y_Left_xpm[] = {
/* columns rows colors chars-per-pixel */
"33 23 7 1",
"  c #010101",
". c #666666",
"X c #FF6600",
"o c #BBBBBB",
"O c #DCDCDC",
"+ c #F1F1F1",
"@ c None",
/* pixels */
"@@@@@@@@@@@@@@@@@@@@@@@@@@@@@@@@@",
"@ @@@@@@@@@@@@@@@@@@@@@@@@@@@@@@@",
"@ @@@@@@@@@@@@@@@@@@@@@@@@@@@@@@@",
"@ @@@@@@@@@@@@@@@@@@@@@@@@@@@@@@@",
"@ @@@@@@@@@@@@@@@@@@@@@@@@@  @@@@",
"@ @@@@@@@@@@OOOOOO@@@@@@@@   @@@@",
"@ @@@@@@@@@O@@@@OO@@@@@@@    @@@@",
"@ @@@@@@@@O@@@@O@O@@@@@@        @",
"@ @@@@@@@OOOOOO@@O@@@@@         @",
"@ @@@@@@@O@@@@O@@O@@@@@@        @",
"@ @@@@@@@O@@@@O@@O@@@@@@@    @@@@",
"@ @@@@      @@O@O@@@@@@@@@   @@@@",
"@ @@@ oooo  @@OO@@@@@@@@@@@  @@@@",
"@ @@ oooo + OOO@@@@@@@@@@@@@@@@@@",
"@ @      ++ @@@@@@@@@@@@@@@@@@@@@",
"@ @ .... ++ @@@@@@@@@@@@@ @@@ @@@",
"@ @ .... ++ @@@@@@@@@@@@@ @@@ @@@",
"@ @ .... + @@@@@@@@@@@@@@@ @ @@@@",
"@ @ ....  @@@@@@@@@@@@@@@@@ @@@@@",
"@ @      @@@@@@@@@@@@@@@@@@ @@@@@",
"@  @@@@@@@@@@@@@@@@@@@@@@@@ @@@@@",
"@                     @@@@@ @@@@@",
"@@@@@@@@@@@@@@@@@@@@@@@@@@@@@@@@@"
};
