/* XPM */
static char *Transform_Monochrome_Nudge_Z_Left_xpm[] = {
/* columns rows colors chars-per-pixel */
"33 23 7 1",
"  c black",
". c gray40",
"X c #FF6600",
"o c #BBBBBB",
"O c gainsboro",
"+ c #F1F1F1",
"@ c None",
/* pixels */
"@@@@@@@@@@@@@@@@@@@@@@@@@@@@@@@@@",
"@ @@@@OOOOOO@@@@@@@@@@@@@@@@@@@@@",
"@ @@@O@@@@OO@@@@@@@@@@@@@@@@@@@@@",
"@ @@O@@@@O@O@@@@@@@@@@@@@@@@@@@@@",
"@ @OOOOOO@@O@@@@@@@@@@@@@@@  @@@@",
"@ @O@@@@O@@O@@@@@@@@@@@@@@   @@@@",
"@ @O@@@@O@@O@@@@@@@@@@@@@    @@@@",
"@ @O@@@@O@O@@@@@@@@@@@@@        @",
"@ @O@@@@OO@@@@ @@@@@@@@         @",
"@ @OOOOOO@@@@ @@@@@@@@@@        @",
"@ @@@@@@@@@@ @@@@@@@@@@@@    @@@@",
"@ @@@@      @@@@@@@@@@@@@@   @@@@",
"@ @@@ oooo  @@@@@@@@@@@@@@@  @@@@",
"@ @@ oooo + @@@@@@@@@@@@@@@@@@@@@",
"@ @      ++ @@@@@@@@@@@@@@@@@@@@@",
"@ @ .... ++ @@@@@@@@@@@@@     @@@",
"@ @ .... ++ @@@@@@@@@@@@@@@@@ @@@",
"@ @ .... + @@@@@@@@@@@@@@@@@ @@@@",
"@ @ ....  @@@@@@@@@@@@@@@@@ @@@@@",
"@ @      @@@@@@@@@@@@@@@@@ @@@@@@",
"@  @@@@@@@@@@@@@@@@@@@@@@ @@@@@@@",
"@                     @@@     @@@",
"@@@@@@@@@@@@@@@@@@@@@@@@@@@@@@@@@"
};
