/* XPM */
static const char *Transform_Monochrome_Flip_Y_xpm[] = {
/* columns rows colors chars-per-pixel */
"68 23 6 1",
"  c black",
". c #666666",
"X c #BBBBBB",
"o c #99FFFF",
"O c #F1F1F1",
"+ c None",
/* pixels */
"++++++++++++++++++++++++++++++++++++++++++++++++++++++++++++++++++++",
"+ ++++++++++++++++++++++++++++++++++++++++++++ +++++++++++++++++++++",
"+ +++++++             ++++++++++++++++++++++++ +++++++++++++++++++++",
"+ ++++++ XXXXXXXXXXX  ++++++++++++++++++++++++ +++++++++++++++++++++",
"+ +++++ XXXXXXXXXXX O +++++  ++++++++++  +++++ +++++++++++++++++++++",
"+ ++++             OO ++++   ++++++++++   ++++ ++++             ++++",
"+ ++++ ........... OO +++    ++++++++++    +++ +++ XXXXXXXXXXX  ++++",
"+ ++++ ........... OO ++        ++++        ++ ++ XXXXXXXXXXX O    +",
"+ ++++ ........... O  +         ++++         + +             OO X  +",
"+ ++++ ...........  O ++        ++++        ++ + ........... OO  O +",
"+ ++++             OO +++    ++++++++++    +++ + ........... OO OO +",
"+ +++++++++ XXXXX OOO ++++   ++++++++++   ++++ + ........... O OOO +",
"+ ++++++++ XXXXX OOOO +++++  ++++++++++  +++++ + ...........  OOOO +",
"+ +++++++       OOOOO ++++++++++++++++++++++++ +             OOOOO +",
"+ ++++++  ..... OOOO +++++++++++++++++++++++++ ++++++  ..... OOOO ++",
"+ +++++ + ..... OOO +++++ +++ ++++++++ +++ +++ +++++ + ..... OOO +++",
"+ ++++ ++ ..... OO ++++++ +++ ++++++++ +++ +++ ++++ ++ ..... OO ++++",
"+ +++ +++ ..... O ++++++++ + ++++++++++ + ++++ +++ +++ ..... O +++++",
"+ ++ ++++ .....  ++++++++++ ++++++++++++ +++++ ++ ++++ .....  ++++++",
"+ + +++++       +++++++++++ ++++++++++++ +++++ + +++++       +++++++",
"+  ++++++++++++++++++++++++ ++++++++++++ +++++  ++++++++++++++++++++",
"+                     +++++ ++++++++++++ +++++                     +",
"++++++++++++++++++++++++++++++++++++++++++++++++++++++++++++++++++++"
};
