/* XPM */
static const char *Transform_Monochrome_Rotate_Z_Right_xpm[] = {
/* columns rows colors chars-per-pixel */
"33 23 6 1",
"  c #010101",
". c #666666",
"X c #BBBBBB",
"o c #99FFFF",
"O c #FFFFFF",
"+ c None",
/* pixels */
"+++++++++++++++++++++++++++++++++",
"+++++++++++ +++++++++++++++++++++",
"+++++++++++ +++++++             +",
"+++++++++++ ++++++ XXXXXXXXXXX  +",
"++++  +++++ +++++ XXXXXXXXXXX O +",
"++++   ++++ ++++             OO +",
"++++    +++ ++++ ........... OO +",
"+        ++ ++++ ........... OO +",
"+         + ++++ ........... O  +",
"+        ++ ++++ ...........  O +",
"++++    +++ ++++             OO +",
"++++   ++++ +++++++++ XXXXX OOO +",
"++++  +++++ ++++++++ XXXXX OOOO +",
"+++++++++++ +++++++       OOOOO +",
"+++++++++++ ++++++  ..... OOOO ++",
"+++     +++ +++++ + ..... OOO +++",
"+++++++ +++ ++++ ++ ..... OO ++++",
"++++++ ++++ +++ +++ ..... O +++++",
"+++++ +++++ ++ ++++ .....  ++++++",
"++++ ++++++ + +++++       +++++++",
"+++ +++++++  ++++++++++++++++++++",
"+++     +++                     +",
"+++++++++++++++++++++++++++++++++"
};
