/* XPM */
static const char * ViewMode3D_xpm[] = {
"21 21 10 1",
" 	c None",
".	c #FF3440",
"+	c #FF34FF",
"@	c #3534FF",
"#	c #FF4DFF",
"$	c #FF4D59",
"%	c #FF65FF",
"&	c #4D4CFF",
"*	c #353435",
"=	c #FF4CFF",
"                     ",
"                     ",
" ..++++++@#$%%%%%%&& ",
" ..++++++@#$%%%%%%&& ",
" ..++++++@#$%%%%%%&& ",
" ..++++++@#$%%%%%%&& ",
" ..++++++@#$%%%%%%&& ",
" ..++++++@#$%%%%%%&& ",
" ..++++++@#$%%%%%%&& ",
" ..++++++@#$%%%%%%&& ",
" ******************* ",
" $$%%%%%%&=.++++++@@ ",
" $$%%%%%%&=.++++++@@ ",
" $$%%%%%%&=.++++++@@ ",
" $$%%%%%%&=.++++++@@ ",
" $$%%%%%%&=.++++++@@ ",
" $$%%%%%%&=.++++++@@ ",
" $$%%%%%%&=.++++++@@ ",
" $$%%%%%%&=.++++++@@ ",
"                     ",
"                     "};
