/* XPM */
static const char * ViewModeColor_xpm[] = {
"21 21 5 1",
" 	c None",
".	c #B89235",
"+	c #0000E7",
"@	c #000000",
"#	c #1818FF",
"                     ",
"                     ",
"  ...+++++@.....###  ",
"  ...+++++@.....###  ",
"  ...+++++@.....###  ",
"  ++++++++@########  ",
"  ++++++++@########  ",
"  ++++++++@########  ",
"  ++++++++@########  ",
"  ++++++++@########  ",
"  @@@@@@@@@@@@@@@@@  ",
"  ...#####@.....+++  ",
"  ...#####@.....+++  ",
"  ...#####@.....+++  ",
"  ...#####@.....+++  ",
"  ...#####@.....+++  ",
"  ########@++++++++  ",
"  ########@++++++++  ",
"  ########@++++++++  ",
"                     ",
"                     "};
