/* XPM */
static const char * ViewModeInsides_xpm[] = {
"21 21 3 1",
" 	c None",
".	c #AEAEAE",
"+	c #707070",
"                     ",
"                     ",
"  .................  ",
"  .................  ",
"  .................  ",
"  ...+++++++++++...  ",
"  ...+++++++++++...  ",
"  ...+++++++++++...  ",
"  ...+++++++++++...  ",
"  ...+++++++++++...  ",
"  ...+++++++++++...  ",
"  ...+++++++++++...  ",
"  ...+++++++++++...  ",
"  ...+++++++++++...  ",
"  ...+++++++++++...  ",
"  ...+++++++++++...  ",
"  .................  ",
"  .................  ",
"  .................  ",
"                     ",
"                     "};
