/* XPM */
static const char * ViewMode3DL_xpm[] = {
"21 21 23 1",
" 	c None",
".	c #670000",
"+	c #100000",
"@	c #000000",
"#	c #004B4B",
"$	c #000D0D",
"%	c #005050",
"&	c #340000",
"*	c #090000",
"=	c #780000",
"-	c #E40000",
";	c #FF0000",
">	c #002626",
",	c #000909",
"'	c #007878",
")	c #00E4E4",
"!	c #00FFFF",
"~	c #002727",
"{	c #660000",
"]	c #E00000",
"^	c #00E0E0",
"/	c #680000",
"(	c #004E4E",
"                     ",
"                     ",
"                     ",
"  .+@@+.     #$@@$%  ",
" &*=-;=*&@@@>,')!',~ ",
"{*];;;;]*@ @,^!!!!^,%",
"+=;;;;;;=+ $'!!!!!!'$",
"@-;;;;;;-@ @)!!!!!!)@",
"@-;;;;;;-@ @)!!!!!!)@",
"+=;;;;;;=+ $'!!!!!!'$",
".*];;;;]*/ (,^!!!!^,%",
" &*=-;=*&   >,')!',~ ",
"  /+@@+/     #$@@$(  ",
"                     ",
"                     ",
"                     ",
"                     ",
"                     ",
"                     ",
"                     ",
"                     "};
