/* XPM */
static char * ViewModeNormal_xpm[] = {
"21 21 4 1",
" 	c None",
".	c #0000E7",
"+	c #000000",
"@	c #1818FF",
"                     ",
"                     ",
"  ........+@@@@@@@@  ",
"  ........+@@@@@@@@  ",
"  ........+@@@@@@@@  ",
"  ........+@@@@@@@@  ",
"  ........+@@@@@@@@  ",
"  ........+@@@@@@@@  ",
"  ........+@@@@@@@@  ",
"  ........+@@@@@@@@  ",
"  +++++++++++++++++  ",
"  @@@@@@@@+........  ",
"  @@@@@@@@+........  ",
"  @@@@@@@@+........  ",
"  @@@@@@@@+........  ",
"  @@@@@@@@+........  ",
"  @@@@@@@@+........  ",
"  @@@@@@@@+........  ",
"  @@@@@@@@+........  ",
"                     ",
"                     "};
