/* XPM */
static const char * ViewMode3D_xpm[] = {
"21 21 23 1",
" 	c None",
".	c #005050",
"+	c #000D0D",
"@	c #000000",
"#	c #004B4B",
"$	c #670000",
"%	c #100000",
"&	c #002727",
"*	c #000909",
"=	c #007878",
"-	c #00FFFF",
";	c #00E4E4",
">	c #002626",
",	c #340000",
"'	c #090000",
")	c #780000",
"!	c #FF0000",
"~	c #E40000",
"{	c #00E0E0",
"]	c #E00000",
"^	c #660000",
"/	c #004E4E",
"(	c #680000",
"                     ",
"                     ",
"                     ",
"  .+@@+#     $%@@%$  ",
" &*=-;=*>@@@,')!~)', ",
".*{----{*@ @']!!!!]'^",
"+=------=+ %)!!!!!!)%",
"@;------;@ @~!!!!!!~@",
"@;------;@ @~!!!!!!~@",
"+=------=+ %)!!!!!!)%",
".*{----{*/ (']!!!!]'$",
" &*=-;=*>   ,')!~)', ",
"  /+@@+#     (%@@%(  ",
"                     ",
"                     ",
"                     ",
"                     ",
"                     ",
"                     ",
"                     ",
"                     "};
